<svg width="1920" height="1080" viewBox="0 0 1920 1080" fill="none" xmlns="http://www.w3.org/2000/svg">
<rect width="1920" height="1080" fill="#ECF3D6"/>
<path d="M1770.55 385.275L1771.59 423.972C1768.83 424.375 1766.39 425.466 1764.26 427.247C1762.08 429.029 1760.38 431.356 1759.17 434.228C1757.91 437.044 1757.28 440.319 1757.28 444.054C1757.28 448.937 1758.26 453.103 1760.21 456.55C1762.16 459.94 1764.81 461.607 1768.14 461.549C1770.72 461.607 1772.97 460.572 1774.86 458.447C1776.76 456.263 1778.28 452.385 1779.43 446.811L1784.26 421.301C1786.78 408.085 1790.98 398.26 1796.84 391.825C1802.7 385.332 1810.46 382.057 1820.11 382C1829.19 382.057 1837.09 384.758 1843.81 390.101C1850.54 395.387 1855.76 402.627 1859.5 411.82C1863.18 421.013 1865.02 431.528 1865.02 443.364C1865.02 462.267 1861.14 477.177 1853.38 488.094C1845.57 498.954 1835.11 505.159 1822.01 506.71L1820.97 465.083C1825.8 464.163 1829.48 461.779 1832.01 457.929C1834.53 454.08 1835.8 449.167 1835.8 443.192C1835.8 437.791 1834.79 433.395 1832.78 430.005C1830.77 426.615 1828.1 424.892 1824.77 424.834C1821.78 424.892 1819.39 426.213 1817.61 428.799C1815.77 431.384 1814.34 435.435 1813.3 440.951L1808.91 464.049C1806.49 477.321 1802.04 487.204 1795.55 493.696C1789 500.189 1780.66 503.407 1770.55 503.349C1761.7 503.407 1754.15 501.051 1747.88 496.282C1741.56 491.513 1736.74 484.733 1733.4 475.942C1730.07 467.151 1728.41 456.78 1728.41 444.829C1728.41 426.903 1732.17 412.768 1739.7 402.426C1747.17 392.084 1757.45 386.367 1770.55 385.275Z" fill="black"/>
<path d="M1686 500.978H1862.52V543.123H1686V500.978Z" fill="black"/>
<path d="M1865.02 600.78C1865.02 614.627 1862.29 626.578 1856.83 636.633C1851.31 646.631 1843.47 654.33 1833.3 659.731C1823.07 665.075 1810.92 667.746 1796.84 667.746C1783.16 667.746 1771.21 665.046 1760.98 659.645C1750.7 654.244 1742.71 646.631 1737.02 636.806C1731.28 626.981 1728.41 615.403 1728.41 602.073C1728.41 592.65 1729.87 584.032 1732.8 576.217C1735.73 568.403 1740.07 561.652 1745.82 555.964C1751.56 550.276 1758.66 545.851 1767.1 542.691C1775.49 539.531 1785.12 537.951 1795.98 537.951H1806.49V653.009H1782.02V577.165C1777.53 577.223 1773.54 578.286 1770.03 580.354C1766.53 582.423 1763.8 585.267 1761.85 588.887C1759.84 592.449 1758.83 596.557 1758.83 601.211C1758.83 605.923 1759.89 610.146 1762.02 613.88C1764.09 617.615 1766.93 620.574 1770.55 622.758C1774.11 624.941 1778.17 626.09 1782.7 626.205H1807.61C1813.01 626.205 1817.76 625.142 1821.83 623.016C1825.86 620.89 1828.99 617.874 1831.23 613.967C1833.47 610.06 1834.59 605.406 1834.59 600.005C1834.59 596.27 1834.07 592.88 1833.04 589.835C1832.01 586.789 1830.48 584.175 1828.47 581.992C1826.46 579.808 1823.99 578.171 1821.06 577.079L1822.18 538.382C1830.86 539.991 1838.41 543.524 1844.85 548.983C1851.23 554.384 1856.2 561.48 1859.76 570.271C1863.26 579.061 1865.02 589.231 1865.02 600.78Z" fill="black"/>
<path d="M1730.13 737.34L1773.74 715.535L1730.13 692.955V650.465L1796.32 687.439L1862.52 649.086V691.231L1818.56 715.535L1862.52 739.236V781.984L1796.32 743.546L1730.13 780.088V737.34Z" fill="black"/>
<path d="M1862.52 815.467H1730.13V773.322H1862.52V815.467Z" fill="black"/>
<path fill-rule="evenodd" clip-rule="evenodd" d="M1862.52 947.093H1807.7V904.431H1862.52V947.093ZM1774.09 904.431H1807.7V875.472C1807.7 861.97 1805.2 850.306 1800.2 840.481C1795.2 830.656 1788.16 823.1 1779.08 817.814C1769.95 812.471 1759.29 809.799 1747.11 809.799C1734.98 809.799 1724.35 812.413 1715.22 817.642C1706.02 822.871 1698.87 830.311 1693.76 839.964C1688.59 849.559 1686 860.965 1686 874.18V947.093H1774.09V904.431ZM1774.09 904.431V883.402C1774.09 876.966 1772.97 871.594 1770.72 867.285C1768.48 862.918 1765.35 859.614 1761.33 857.374C1757.25 855.133 1752.51 854.012 1747.11 854.012C1741.65 854.012 1736.94 855.133 1732.97 857.374C1728.95 859.614 1725.85 862.918 1723.66 867.285C1721.48 871.652 1720.39 877.024 1720.39 883.402V904.431H1774.09Z" fill="black"/>
<path d="M1792.13 987.148H1807.7V947.093H1774.09V987.148H1792.13Z" fill="black"/>
<rect x="1773.15" y="988.766" width="40.4497" height="35.5974" transform="rotate(-90 1773.15 988.766)" fill="#255073"/>
<path fill-rule="evenodd" clip-rule="evenodd" d="M1641.21 754.878L1652.89 736.179C1651.69 736.105 1650.48 736.067 1649.25 736.067C1629.35 736.067 1611.86 746.057 1601.9 761.12L1619.64 788.994L1619.05 789.928L1618.35 788.829L1619.04 789.943L1619.05 789.928L1619.19 790.157L1619.78 789.214L1619.71 789.117L1619.64 788.994L1634.29 765.817H1634.29L1634.37 765.689L1641.21 754.878ZM1601.44 761.762L1601.5 761.723L1601.47 761.77L1601.46 761.796L1601.44 761.762ZM1601.3 762.044L1612.65 779.886L1618.96 790.068L1618.94 790.092L1618.99 790.119L1633.15 813H1598.37C1598 812.248 1597.66 811.486 1597.33 810.716C1594.62 804.378 1593.13 797.436 1593.13 790.159C1593.13 779.862 1596.12 770.237 1601.3 762.044ZM1634 814.371L1634.04 814.437L1634.15 814.371H1634.6L1634.59 814.362H1634.22L1634.15 814.371H1634ZM1599.39 815C1608.14 831.279 1625.21 842.729 1645.18 844.11L1645.85 844.523L1646.07 844.165L1646.23 844.173L1664.41 814.5H1664.25L1664.85 813.523L1664.82 813.502L1664.29 814.362H1664V814.5H1664.25L1664 814.914V815H1663.95L1646.07 844.165C1645.77 844.149 1645.48 844.13 1645.18 844.11L1645 844L1662.77 815L1635 815L1599.39 815ZM1698.95 765H1636.06L1654.02 736.26C1673.56 737.845 1690.25 749.078 1698.95 765ZM1665.07 767L1697.26 818.182C1702.41 810.009 1705.37 800.417 1705.37 790.159C1705.37 781.872 1703.44 774.02 1699.98 767H1665.07ZM1635.79 814.371H1663.16L1663.17 814.362H1635.78L1635.79 814.371ZM1649.25 844.25C1648.29 844.25 1647.33 844.227 1646.38 844.18L1678.92 791.064L1696.55 819.285C1686.58 834.299 1669.12 844.25 1649.25 844.25ZM1678.84 790.94L1679.32 790.159L1678.84 790.935L1678.84 790.94Z" fill="black"/>
<path d="M634.265 698V443.455H739.414C758.472 443.455 774.92 447.183 788.757 454.641C802.678 462.015 813.408 472.331 820.948 485.589C828.488 498.763 832.259 514.093 832.259 531.576C832.259 549.142 828.406 564.513 820.7 577.688C813.076 590.779 802.18 600.93 788.011 608.138C773.842 615.347 757.022 618.952 737.55 618.952H672.67V570.479H726.115C735.395 570.479 743.143 568.863 749.357 565.631C755.655 562.4 760.419 557.884 763.651 552.084C766.882 546.201 768.498 539.365 768.498 531.576C768.498 523.704 766.882 516.91 763.651 511.192C760.419 505.392 755.655 500.918 749.357 497.769C743.06 494.621 735.313 493.046 726.115 493.046H695.788V698H634.265ZM871.067 701.232C858.886 701.232 848.073 699.201 838.627 695.141C829.264 690.998 821.848 684.784 816.379 676.498C810.993 668.129 808.3 657.647 808.3 645.053C808.3 634.446 810.165 625.498 813.893 618.206C817.622 610.914 822.759 604.99 829.305 600.433C835.851 595.875 843.392 592.437 851.926 590.116C860.461 587.714 869.575 586.098 879.27 585.269C890.125 584.275 898.866 583.239 905.495 582.162C912.124 581.002 916.93 579.386 919.913 577.315C922.978 575.16 924.511 572.136 924.511 568.241V567.62C924.511 561.24 922.316 556.31 917.924 552.83C913.532 549.349 907.608 547.609 900.151 547.609C892.113 547.609 885.65 549.349 880.761 552.83C875.873 556.31 872.765 561.116 871.44 567.247L815.385 565.259C817.042 553.658 821.309 543.301 828.187 534.186C835.147 524.989 844.676 517.78 856.773 512.56C868.954 507.257 883.579 504.605 900.648 504.605C912.828 504.605 924.056 506.055 934.33 508.955C944.605 511.772 953.554 515.915 961.177 521.384C968.8 526.77 974.683 533.399 978.826 541.271C983.052 549.142 985.165 558.133 985.165 568.241V698H927.991V671.402H926.5C923.103 677.865 918.753 683.334 913.45 687.808C908.229 692.283 902.056 695.638 894.93 697.876C887.887 700.113 879.933 701.232 871.067 701.232ZM889.835 661.459C896.38 661.459 902.263 660.133 907.484 657.482C912.787 654.83 917.013 651.184 920.161 646.544C923.31 641.821 924.884 636.352 924.884 630.138V611.991C923.144 612.903 921.031 613.732 918.545 614.477C916.143 615.223 913.491 615.927 910.591 616.59C907.691 617.253 904.708 617.833 901.642 618.33C898.576 618.827 895.635 619.283 892.817 619.697C887.1 620.609 882.211 622.018 878.151 623.923C874.174 625.829 871.108 628.315 868.954 631.381C866.882 634.364 865.847 637.927 865.847 642.07C865.847 648.367 868.084 653.173 872.558 656.487C877.116 659.802 882.874 661.459 889.835 661.459ZM1044.61 589.122V698H983.827V507.091H1041.62V542.141H1043.74C1047.96 530.457 1055.17 521.301 1065.36 514.673C1075.55 507.961 1087.69 504.605 1101.78 504.605C1115.2 504.605 1126.84 507.629 1136.7 513.678C1146.65 519.644 1154.35 528.013 1159.82 538.785C1165.37 549.474 1168.11 561.986 1168.02 576.32V698H1107.25V588.252C1107.33 577.646 1104.64 569.36 1099.17 563.394C1093.78 557.428 1086.28 554.445 1076.67 554.445C1070.29 554.445 1064.66 555.854 1059.77 558.671C1054.96 561.406 1051.23 565.341 1048.58 570.479C1046.01 575.616 1044.69 581.83 1044.61 589.122ZM1236.88 700.734C1222.79 700.734 1209.99 697.089 1198.47 689.797C1186.96 682.505 1177.76 671.568 1170.88 656.984C1164 642.401 1160.57 624.296 1160.57 602.67C1160.57 580.215 1164.13 561.737 1171.26 547.237C1178.38 532.736 1187.7 522.006 1199.22 515.045C1210.82 508.085 1223.29 504.605 1236.63 504.605C1246.66 504.605 1255.23 506.345 1262.36 509.825C1269.49 513.223 1275.37 517.614 1280.01 523C1284.65 528.386 1288.17 533.979 1290.57 539.779H1291.82V443.455H1352.59V698H1292.44V667.052H1290.57C1288 672.935 1284.36 678.445 1279.64 683.582C1274.91 688.72 1268.99 692.863 1261.86 696.011C1254.82 699.16 1246.49 700.734 1236.88 700.734ZM1258.01 653.38C1265.38 653.38 1271.68 651.308 1276.9 647.165C1282.12 642.94 1286.14 637.015 1288.96 629.392C1291.77 621.769 1293.18 612.82 1293.18 602.545C1293.18 592.105 1291.77 583.115 1288.96 575.575C1286.22 568.034 1282.2 562.234 1276.9 558.174C1271.68 554.114 1265.38 552.084 1258.01 552.084C1250.47 552.084 1244.09 554.155 1238.87 558.298C1233.65 562.441 1229.67 568.283 1226.94 575.823C1224.29 583.363 1222.96 592.271 1222.96 602.545C1222.96 612.82 1224.33 621.769 1227.06 629.392C1229.8 637.015 1233.73 642.94 1238.87 647.165C1244.09 651.308 1250.47 653.38 1258.01 653.38ZM1406.35 701.232C1394.17 701.232 1383.35 699.201 1373.91 695.141C1364.55 690.998 1357.13 684.784 1351.66 676.498C1346.27 668.129 1343.58 657.647 1343.58 645.053C1343.58 634.446 1345.45 625.498 1349.17 618.206C1352.9 610.914 1358.04 604.99 1364.59 600.433C1371.13 595.875 1378.67 592.437 1387.21 590.116C1395.74 587.714 1404.86 586.098 1414.55 585.269C1425.41 584.275 1434.15 583.239 1440.78 582.162C1447.41 581.002 1452.21 579.386 1455.19 577.315C1458.26 575.16 1459.79 572.136 1459.79 568.241V567.62C1459.79 561.24 1457.6 556.31 1453.21 552.83C1448.81 549.349 1442.89 547.609 1435.43 547.609C1427.39 547.609 1420.93 549.349 1416.04 552.83C1411.15 556.31 1408.05 561.116 1406.72 567.247L1350.67 565.259C1352.32 553.658 1356.59 543.301 1363.47 534.186C1370.43 524.989 1379.96 517.78 1392.05 512.56C1404.24 507.257 1418.86 504.605 1435.93 504.605C1448.11 504.605 1459.34 506.055 1469.61 508.955C1479.89 511.772 1488.83 515.915 1496.46 521.384C1504.08 526.77 1509.96 533.399 1514.11 541.271C1518.33 549.142 1520.45 558.133 1520.45 568.241V698H1463.27V671.402H1461.78C1458.38 677.865 1454.03 683.334 1448.73 687.808C1443.51 692.283 1437.34 695.638 1430.21 697.876C1423.17 700.113 1415.21 701.232 1406.35 701.232ZM1425.12 661.459C1431.66 661.459 1437.54 660.133 1442.76 657.482C1448.07 654.83 1452.29 651.184 1455.44 646.544C1458.59 641.821 1460.17 636.352 1460.17 630.138V611.991C1458.43 612.903 1456.31 613.732 1453.83 614.477C1451.42 615.223 1448.77 615.927 1445.87 616.59C1442.97 617.253 1439.99 617.833 1436.92 618.33C1433.86 618.827 1430.92 619.283 1428.1 619.697C1422.38 620.609 1417.49 622.018 1413.43 623.923C1409.46 625.829 1406.39 628.315 1404.24 631.381C1402.16 634.364 1401.13 637.927 1401.13 642.07C1401.13 648.367 1403.37 653.173 1407.84 656.487C1412.4 659.802 1418.16 661.459 1425.12 661.459Z" fill="black"/>
<path fill-rule="evenodd" clip-rule="evenodd" d="M395.399 382.967C383.272 386.261 374.949 395.052 373.968 405.603L373.419 411.494L381.537 411.868C394.736 412.475 410.061 415.038 421.014 418.468C432.616 422.101 433.345 421.759 435.194 411.827C436.743 403.509 429.805 391.322 420.792 386.531C412.688 382.225 403.092 380.877 395.399 382.967ZM284.116 409.189C266.343 413.114 255.041 426.275 254.945 443.158C254.899 451.024 255.693 453.97 259.392 459.68C267.743 472.564 287.409 481.774 307.122 482.033C320.43 482.209 325.84 479.706 330.908 471.036C333.286 466.964 333.71 463.703 333.093 454.204C331.062 422.949 309.895 403.497 284.116 409.189ZM400.556 460.907C389.9 465.737 376.632 477.566 372.05 486.323C368.522 493.069 368.686 504.263 372.422 511.724C385.457 537.755 428.248 536.437 438.294 509.695C445.032 491.759 436.191 463.857 422.075 458.506C414.274 455.55 411.756 455.831 400.556 460.907ZM462.272 460.179C456.984 463.538 457.906 466.862 465.614 472.225C469.381 474.845 475.379 479.319 478.941 482.166C486.52 488.222 487.915 488.515 487.818 484.027C487.698 478.422 483.832 470.413 478.152 464.004C472.298 457.397 468.204 456.41 462.272 460.179ZM476.929 500.58C469.891 504.472 469.874 509.599 476.885 515.406C479.763 517.79 483.124 519.742 484.354 519.742C487.788 519.742 497.631 510.104 497.631 506.742C497.631 503.132 490.394 497.649 485.64 497.656C483.752 497.659 479.832 498.974 476.929 500.58ZM233.382 535.147C192.111 546.842 180.362 592.338 208.691 630.757C213.187 636.854 221.403 645.586 226.948 650.162C239.276 660.334 272.145 680.325 293.238 690.482L308.853 698L347.572 697.604L386.288 697.209L387.721 691.716C390.947 679.334 379.397 646.39 361.766 617.68C324.694 557.313 292.621 532.73 251.408 533.095C245.286 533.15 237.174 534.073 233.382 535.147ZM175.329 538.631C158.738 543.897 150.311 548.789 137.068 560.848C109.342 586.091 74.4328 647.635 66.5481 685.169C65.3385 690.928 64.7036 696.158 65.1355 696.792C65.9831 698.037 200.496 698.439 200.496 697.197C200.496 696.785 196.172 691.778 190.887 686.069C161.81 654.657 153.092 614.832 167.108 577.45C172.135 564.047 176.219 557.095 185.849 545.555C190.333 540.182 194.001 535.49 194.001 535.128C194.001 533.559 187.424 534.792 175.329 538.631ZM434.996 608.344C421.685 619.763 417.135 629.452 412.279 656.727C410.056 669.212 407.163 683.193 405.847 687.794C404.532 692.396 403.457 696.563 403.457 697.053C403.457 697.543 425.32 697.946 452.041 697.946H500.627L502.58 692.576C507.291 679.63 500.114 659.074 483.517 637.978C475.164 627.362 447.904 600.744 445.384 600.744C444.543 600.744 439.869 604.163 434.996 608.344Z" fill="black"/>
</svg>
