<svg width="1920" height="1080" viewBox="0 0 1920 1080" fill="none" xmlns="http://www.w3.org/2000/svg">
<rect width="1920" height="1080" fill="#ECF3D6"/>
<path d="M1731.87 688.418L1693.18 689.452C1692.77 686.694 1691.68 684.252 1689.9 682.126C1688.12 679.943 1685.79 678.248 1682.92 677.041C1680.1 675.777 1676.83 675.145 1673.09 675.145C1668.21 675.145 1664.05 676.122 1660.6 678.075C1657.21 680.029 1655.54 682.672 1655.6 686.005C1655.54 688.59 1656.58 690.831 1658.7 692.728C1660.88 694.624 1664.76 696.146 1670.34 697.296L1695.85 702.122C1709.06 704.65 1718.89 708.845 1725.32 714.706C1731.82 720.567 1735.09 728.324 1735.15 737.977C1735.09 747.056 1732.39 754.956 1727.05 761.679C1721.76 768.402 1714.52 773.631 1705.33 777.366C1696.13 781.043 1685.62 782.882 1673.78 782.882C1654.88 782.882 1639.97 779.003 1629.05 771.246C1618.19 763.432 1611.99 752.974 1610.44 739.873L1652.07 738.839C1652.98 743.666 1655.37 747.343 1659.22 749.871C1663.07 752.399 1667.98 753.663 1673.96 753.663C1679.36 753.663 1683.75 752.658 1687.14 750.647C1690.53 748.636 1692.26 745.964 1692.31 742.631C1692.26 739.643 1690.94 737.259 1688.35 735.478C1685.76 733.639 1681.71 732.202 1676.2 731.168L1653.1 726.772C1639.83 724.359 1629.94 719.906 1623.45 713.413C1616.96 706.863 1613.74 698.531 1613.8 688.418C1613.74 679.569 1616.1 672.013 1620.87 665.75C1625.64 659.43 1632.42 654.603 1641.21 651.27C1650 647.938 1660.37 646.271 1672.32 646.271C1690.25 646.271 1704.38 650.035 1714.72 657.562C1725.06 665.032 1730.78 675.317 1731.87 688.418Z" fill="black"/>
<path d="M1616.17 603.866V780.382H1574.03V603.866H1616.17Z" fill="black"/>
<path d="M1516.37 782.882C1502.52 782.882 1490.57 780.152 1480.51 774.694C1470.52 769.178 1462.82 761.334 1457.42 751.164C1452.07 740.936 1449.4 728.783 1449.4 714.706C1449.4 701.03 1452.1 689.079 1457.5 678.851C1462.9 668.566 1470.52 660.579 1480.34 654.89C1490.17 649.144 1501.75 646.271 1515.08 646.271C1524.5 646.271 1533.12 647.737 1540.93 650.667C1548.75 653.598 1555.5 657.936 1561.18 663.682C1566.87 669.428 1571.3 676.524 1574.46 684.97C1577.62 693.36 1579.2 702.984 1579.2 713.844V724.359H1464.14V699.881H1539.98C1539.93 695.399 1538.86 691.406 1536.79 687.901C1534.73 684.396 1531.88 681.667 1528.26 679.713C1524.7 677.702 1520.59 676.696 1515.94 676.696C1511.23 676.696 1507 677.759 1503.27 679.885C1499.53 681.954 1496.57 684.798 1494.39 688.418C1492.21 691.981 1491.06 696.031 1490.94 700.571V725.48C1490.94 730.881 1492.01 735.621 1494.13 739.701C1496.26 743.723 1499.27 746.855 1503.18 749.095C1507.09 751.336 1511.74 752.457 1517.14 752.457C1520.88 752.457 1524.27 751.94 1527.31 750.905C1530.36 749.871 1532.97 748.348 1535.16 746.337C1537.34 744.326 1538.98 741.856 1540.07 738.925L1578.77 740.046C1577.16 748.722 1573.62 756.278 1568.17 762.713C1562.76 769.091 1555.67 774.062 1546.88 777.624C1538.09 781.129 1527.92 782.882 1516.37 782.882Z" fill="black"/>
<path d="M1379.81 647.995L1401.61 691.607L1424.19 647.995H1466.68L1429.71 714.189L1468.06 780.382H1425.92L1401.61 736.426L1377.91 780.382H1335.16L1373.6 714.189L1337.06 647.995H1379.81Z" fill="black"/>
<path d="M1301.68 780.382V647.995H1343.83V780.382H1301.68Z" fill="black"/>
<path fill-rule="evenodd" clip-rule="evenodd" d="M1170.06 780.382V725.566H1212.72V780.382H1170.06ZM1212.72 691.952V725.566H1241.68C1255.18 725.566 1266.84 723.066 1276.67 718.067C1286.49 713.068 1294.05 706.029 1299.33 696.951C1304.68 687.815 1307.35 677.156 1307.35 664.975C1307.35 652.851 1304.73 642.221 1299.51 633.084C1294.28 623.891 1286.84 616.737 1277.18 611.623C1267.59 606.452 1256.18 603.866 1242.97 603.866H1170.06V691.952H1212.72ZM1212.72 691.952H1233.75C1240.18 691.952 1245.55 690.831 1249.86 688.59C1254.23 686.35 1257.53 683.218 1259.77 679.196C1262.02 675.116 1263.14 670.376 1263.14 664.975C1263.14 659.516 1262.02 654.804 1259.77 650.839C1257.53 646.817 1254.23 643.714 1249.86 641.531C1245.5 639.348 1240.12 638.256 1233.75 638.256H1212.72V691.952Z" fill="black"/>
<rect x="1763.38" y="744" width="40.4497" height="35.5974" fill="#255073"/>
<path fill-rule="evenodd" clip-rule="evenodd" d="M1362.27 559.076L1380.97 570.761C1381.04 569.557 1381.08 568.343 1381.08 567.12C1381.08 547.213 1371.09 529.727 1356.03 519.764L1328.15 537.502L1327.22 536.911L1328.32 536.212L1327.2 536.902L1327.22 536.911L1326.99 537.057L1327.93 537.642L1328.03 537.581L1328.15 537.502L1351.33 552.158V552.154L1351.46 552.24L1362.27 559.076ZM1355.39 519.303L1355.43 519.371L1355.38 519.341L1355.35 519.324L1355.39 519.303ZM1355.1 519.167L1337.26 530.521L1327.08 536.823L1327.06 536.808L1327.03 536.855L1304.15 551.017V516.234C1304.9 515.87 1305.66 515.523 1306.43 515.195C1312.77 512.491 1319.71 511 1326.99 511C1337.29 511 1346.91 513.985 1355.1 519.167ZM1302.78 551.865L1302.71 551.906L1302.78 552.021V552.466L1302.79 552.46V552.088L1302.78 552.021V551.865ZM1302.15 517.255C1285.87 526.002 1274.42 543.078 1273.04 563.045L1272.63 563.719L1272.98 563.938L1272.98 564.094L1302.65 582.272V582.12L1303.63 582.719L1303.65 582.686L1302.79 582.152V581.866H1302.65V582.12L1302.23 581.866H1302.15V581.813L1272.98 563.938C1273 563.64 1273.02 563.342 1273.04 563.045L1273.15 562.866L1302.15 580.64L1302.15 552.866L1302.15 517.255ZM1352.15 616.813V553.93L1380.89 571.889C1379.3 591.428 1368.07 608.118 1352.15 616.813ZM1350.15 582.933L1298.97 615.131C1307.14 620.277 1316.73 623.24 1326.99 623.24C1335.28 623.24 1343.13 621.306 1350.15 617.851V582.933ZM1302.78 553.651V581.026L1302.79 581.032V553.645L1302.78 553.651ZM1272.9 567.12C1272.9 566.155 1272.92 565.197 1272.97 564.244L1326.08 596.783L1297.86 614.417C1282.85 604.445 1272.9 586.988 1272.9 567.12ZM1326.21 596.705L1326.99 597.184L1326.21 596.702L1326.21 596.705Z" fill="black"/>
<path d="M182.265 783V528.455H287.414C306.472 528.455 322.92 532.183 336.757 539.641C350.678 547.015 361.408 557.331 368.948 570.589C376.488 583.763 380.259 599.093 380.259 616.576C380.259 634.142 376.406 649.513 368.7 662.688C361.076 675.779 350.18 685.93 336.011 693.138C321.842 700.347 305.022 703.952 285.55 703.952H220.67V655.479H274.115C283.395 655.479 291.143 653.863 297.357 650.631C303.655 647.4 308.419 642.884 311.651 637.084C314.882 631.201 316.498 624.365 316.498 616.576C316.498 608.704 314.882 601.91 311.651 596.192C308.419 590.392 303.655 585.918 297.357 582.769C291.06 579.621 283.313 578.046 274.115 578.046H243.788V783H182.265ZM419.067 786.232C406.886 786.232 396.073 784.201 386.627 780.141C377.264 775.998 369.848 769.784 364.379 761.498C358.993 753.129 356.3 742.647 356.3 730.053C356.3 719.446 358.165 710.498 361.893 703.206C365.622 695.914 370.759 689.99 377.305 685.433C383.851 680.875 391.392 677.437 399.926 675.116C408.461 672.714 417.575 671.098 427.27 670.269C438.125 669.275 446.866 668.239 453.495 667.162C460.124 666.002 464.93 664.386 467.913 662.315C470.978 660.16 472.511 657.136 472.511 653.241V652.62C472.511 646.24 470.316 641.31 465.924 637.83C461.532 634.349 455.608 632.609 448.151 632.609C440.113 632.609 433.65 634.349 428.761 637.83C423.873 641.31 420.765 646.116 419.44 652.247L363.385 650.259C365.042 638.658 369.309 628.301 376.187 619.186C383.147 609.989 392.676 602.78 404.773 597.56C416.954 592.257 431.579 589.605 448.648 589.605C460.828 589.605 472.056 591.055 482.33 593.955C492.605 596.772 501.554 600.915 509.177 606.384C516.8 611.77 522.683 618.399 526.826 626.271C531.052 634.142 533.165 643.133 533.165 653.241V783H475.991V756.402H474.5C471.103 762.865 466.753 768.334 461.45 772.808C456.229 777.283 450.056 780.638 442.93 782.876C435.887 785.113 427.933 786.232 419.067 786.232ZM437.835 746.459C444.38 746.459 450.263 745.133 455.484 742.482C460.787 739.83 465.013 736.184 468.161 731.544C471.31 726.821 472.884 721.352 472.884 715.138V696.991C471.144 697.903 469.031 698.732 466.545 699.477C464.143 700.223 461.491 700.927 458.591 701.59C455.691 702.253 452.708 702.833 449.642 703.33C446.576 703.827 443.635 704.283 440.817 704.697C435.1 705.609 430.211 707.018 426.151 708.923C422.174 710.829 419.108 713.315 416.954 716.381C414.882 719.364 413.847 722.927 413.847 727.07C413.847 733.367 416.084 738.173 420.558 741.487C425.116 744.802 430.874 746.459 437.835 746.459ZM592.605 674.122V783H531.827V592.091H589.622V627.141H591.735C595.961 615.457 603.17 606.301 613.362 599.673C623.553 592.961 635.692 589.605 649.778 589.605C663.202 589.605 674.844 592.629 684.704 598.678C694.647 604.644 702.353 613.013 707.822 623.785C713.373 634.474 716.108 646.986 716.025 661.32V783H655.247V673.252C655.33 662.646 652.637 654.36 647.168 648.394C641.782 642.428 634.284 639.445 624.672 639.445C618.292 639.445 612.657 640.854 607.768 643.671C602.963 646.406 599.234 650.341 596.582 655.479C594.014 660.616 592.688 666.83 592.605 674.122ZM784.88 785.734C770.794 785.734 757.992 782.089 746.475 774.797C734.957 767.505 725.76 756.568 718.882 741.984C712.005 727.401 708.566 709.296 708.566 687.67C708.566 665.215 712.129 646.737 719.255 632.237C726.381 617.736 735.703 607.006 747.22 600.045C758.821 593.085 771.291 589.605 784.632 589.605C794.658 589.605 803.234 591.345 810.36 594.825C817.486 598.223 823.369 602.614 828.009 608C832.649 613.386 836.17 618.979 838.573 624.779H839.816V528.455H900.594V783H840.438V752.052H838.573C836.005 757.935 832.359 763.445 827.636 768.582C822.913 773.72 816.988 777.863 809.862 781.011C802.819 784.16 794.492 785.734 784.88 785.734ZM806.009 738.38C813.384 738.38 819.681 736.308 824.901 732.165C830.122 727.94 834.14 722.015 836.958 714.392C839.775 706.769 841.183 697.82 841.183 687.545C841.183 677.105 839.775 668.115 836.958 660.575C834.223 653.034 830.204 647.234 824.901 643.174C819.681 639.114 813.384 637.084 806.009 637.084C798.469 637.084 792.089 639.155 786.869 643.298C781.649 647.441 777.671 653.283 774.937 660.823C772.285 668.363 770.96 677.271 770.96 687.545C770.96 697.82 772.327 706.769 775.061 714.392C777.796 722.015 781.731 727.94 786.869 732.165C792.089 736.308 798.469 738.38 806.009 738.38ZM954.348 786.232C942.168 786.232 931.354 784.201 921.908 780.141C912.545 775.998 905.129 769.784 899.661 761.498C894.275 753.129 891.582 742.647 891.582 730.053C891.582 719.446 893.446 710.498 897.175 703.206C900.903 695.914 906.041 689.99 912.587 685.433C919.133 680.875 926.673 677.437 935.207 675.116C943.742 672.714 952.857 671.098 962.551 670.269C973.406 669.275 982.147 668.239 988.776 667.162C995.405 666.002 1000.21 664.386 1003.19 662.315C1006.26 660.16 1007.79 657.136 1007.79 653.241V652.62C1007.79 646.24 1005.6 641.31 1001.21 637.83C996.814 634.349 990.889 632.609 983.432 632.609C975.394 632.609 968.931 634.349 964.043 637.83C959.154 641.31 956.047 646.116 954.721 652.247L898.666 650.259C900.323 638.658 904.591 628.301 911.468 619.186C918.428 609.989 927.957 602.78 940.055 597.56C952.235 592.257 966.86 589.605 983.929 589.605C996.109 589.605 1007.34 591.055 1017.61 593.955C1027.89 596.772 1036.83 600.915 1044.46 606.384C1052.08 611.77 1057.96 618.399 1062.11 626.271C1066.33 634.142 1068.45 643.133 1068.45 653.241V783H1011.27V756.402H1009.78C1006.38 762.865 1002.03 768.334 996.731 772.808C991.511 777.283 985.338 780.638 978.212 782.876C971.169 785.113 963.214 786.232 954.348 786.232ZM973.116 746.459C979.662 746.459 985.545 745.133 990.765 742.482C996.068 739.83 1000.29 736.184 1003.44 731.544C1006.59 726.821 1008.17 721.352 1008.17 715.138V696.991C1006.43 697.903 1004.31 698.732 1001.83 699.477C999.424 700.223 996.772 700.927 993.872 701.59C990.972 702.253 987.989 702.833 984.923 703.33C981.857 703.827 978.916 704.283 976.099 704.697C970.381 705.609 965.493 707.018 961.433 708.923C957.455 710.829 954.389 713.315 952.235 716.381C950.164 719.364 949.128 722.927 949.128 727.07C949.128 733.367 951.365 738.173 955.839 741.487C960.397 744.802 966.156 746.459 973.116 746.459Z" fill="black"/>
<path fill-rule="evenodd" clip-rule="evenodd" d="M1139.59 16.5643C1119.96 21.8949 1106.5 36.1185 1104.91 53.1898L1104.02 62.7215L1117.16 63.3267C1138.51 64.3085 1163.31 68.4548 1181.03 74.0046C1199.8 79.8833 1200.98 79.3305 1203.97 63.26C1206.48 49.8013 1195.25 30.0826 1180.67 22.331C1167.56 15.3633 1152.03 13.1829 1139.59 16.5643ZM959.53 58.9922C930.773 65.3427 912.486 86.6365 912.331 113.954C912.257 126.682 913.542 131.447 919.527 140.686C933.038 161.532 964.858 176.435 996.754 176.854C1018.29 177.137 1027.04 173.089 1035.24 159.061C1039.09 152.472 1039.77 147.196 1038.77 131.826C1035.49 81.2559 1001.24 49.7822 959.53 58.9922ZM1147.93 142.671C1130.69 150.487 1109.22 169.627 1101.81 183.795C1096.1 194.709 1096.36 212.822 1102.41 224.894C1123.5 267.012 1192.73 264.879 1208.99 221.61C1219.89 192.591 1205.59 147.444 1182.75 138.787C1170.13 134.004 1166.05 134.459 1147.93 142.671ZM1247.79 141.494C1239.23 146.929 1240.72 152.307 1253.19 160.984C1259.29 165.223 1268.99 172.462 1274.76 177.068C1287.02 186.867 1289.28 187.341 1289.12 180.08C1288.92 171.011 1282.67 158.053 1273.48 147.682C1264.01 136.992 1257.38 135.396 1247.79 141.494ZM1271.5 206.862C1260.11 213.16 1260.09 221.455 1271.43 230.851C1276.09 234.709 1281.52 237.866 1283.52 237.866C1289.07 237.866 1305 222.272 1305 216.832C1305 210.992 1293.29 202.12 1285.6 202.132C1282.54 202.137 1276.2 204.265 1271.5 206.862ZM877.443 262.792C810.666 281.714 791.656 355.328 837.492 417.489C844.766 427.354 858.06 441.482 867.031 448.886C886.979 465.345 940.16 497.691 974.289 514.123L999.554 526.288L1062.2 525.647L1124.84 525.008L1127.16 516.12C1132.38 496.087 1113.7 442.783 1085.17 396.331C1025.18 298.657 973.291 258.881 906.609 259.472C896.702 259.56 883.577 261.054 877.443 262.792ZM783.512 268.43C756.668 276.949 743.033 284.865 721.606 304.376C676.746 345.219 620.262 444.797 607.505 505.528C605.548 514.845 604.52 523.307 605.219 524.334C606.591 526.348 824.233 526.998 824.233 524.989C824.233 524.322 817.237 516.22 808.685 506.984C761.639 456.159 747.534 391.722 770.211 331.239C778.345 309.552 784.952 298.304 800.533 279.632C807.789 270.939 813.724 263.347 813.724 262.761C813.724 260.223 803.082 262.217 783.512 268.43ZM1203.65 381.225C1182.12 399.7 1174.75 415.377 1166.9 459.509C1163.3 479.709 1158.62 502.33 1156.49 509.774C1154.36 517.221 1152.62 523.962 1152.62 524.756C1152.62 525.549 1188 526.2 1231.23 526.2H1309.84L1313 517.512C1320.63 496.566 1309.01 463.305 1282.16 429.172C1268.65 411.996 1224.54 368.927 1220.46 368.927C1219.1 368.927 1211.54 374.46 1203.65 381.225Z" fill="black"/>
</svg>
