<svg width="1200" height="1200" viewBox="0 0 1200 1200" fill="none" xmlns="http://www.w3.org/2000/svg">
<rect width="1200" height="1200" fill="#ECF3D6"/>
<path d="M963.064 725.313C949.606 725.313 937.659 722.885 927.222 718.029C916.877 713.074 908.683 705.641 902.641 695.73C896.69 685.721 893.715 673.184 893.715 658.12C893.715 645.435 895.775 634.732 899.894 626.011C904.014 617.289 909.69 610.203 916.923 604.753C924.155 599.302 932.486 595.189 941.916 592.414C951.346 589.54 961.416 587.608 972.128 586.617C984.121 585.427 993.78 584.189 1001.1 582.9C1008.43 581.513 1013.74 579.58 1017.03 577.103C1020.42 574.526 1022.11 570.909 1022.11 566.251V565.508C1022.11 557.876 1019.69 551.98 1014.84 547.817C1009.98 543.655 1003.44 541.574 995.199 541.574C986.318 541.574 979.177 543.655 973.776 547.817C968.374 551.98 964.941 557.728 963.476 565.062L901.542 562.683C903.373 548.808 908.088 536.42 915.687 525.519C923.377 514.518 933.905 505.896 947.272 499.653C960.73 493.31 976.889 490.139 995.748 490.139C1009.21 490.139 1021.61 491.873 1032.96 495.342C1044.32 498.711 1054.2 503.667 1062.63 510.207C1071.05 516.649 1077.55 524.578 1082.13 533.992C1086.8 543.407 1089.13 554.16 1089.13 566.251V721.448H1025.96V689.635H1024.31C1020.56 697.366 1015.75 703.906 1009.89 709.258C1004.12 714.61 997.304 718.623 989.431 721.299C981.649 723.975 972.86 725.313 963.064 725.313ZM983.801 677.743C991.033 677.743 997.533 676.157 1003.3 672.986C1009.16 669.815 1013.83 665.454 1017.31 659.904C1020.79 654.255 1022.53 647.714 1022.53 640.282V618.578C1020.6 619.668 1018.27 620.659 1015.52 621.551C1012.87 622.443 1009.94 623.285 1006.73 624.078C1003.53 624.871 1000.23 625.565 996.847 626.159C993.459 626.754 990.209 627.299 987.096 627.794C980.779 628.885 975.378 630.569 970.892 632.849C966.498 635.128 963.11 638.101 960.73 641.768C958.441 645.336 957.297 649.597 957.297 654.553C957.297 662.084 959.769 667.832 964.712 671.797C969.748 675.761 976.11 677.743 983.801 677.743Z" fill="black"/>
<path d="M775.822 724.718C760.258 724.718 746.113 720.358 733.388 711.637C720.662 702.915 710.5 689.834 702.901 672.391C695.303 654.949 691.503 633.295 691.503 607.429C691.503 580.571 695.44 558.471 703.313 541.128C711.187 523.785 721.486 510.951 734.212 502.626C747.029 494.301 760.807 490.139 775.547 490.139C786.625 490.139 796.1 492.22 803.973 496.382C811.847 500.446 818.347 505.698 823.474 512.14C828.601 518.582 832.492 525.271 835.147 532.209H836.52V417H903.672V721.448H837.206V684.432H835.147C832.308 691.469 828.28 698.059 823.062 704.204C817.843 710.348 811.298 715.303 803.424 719.069C795.642 722.835 786.442 724.718 775.822 724.718ZM799.167 668.08C807.315 668.08 814.273 665.603 820.041 660.647C825.808 655.593 830.249 648.507 833.361 639.39C836.474 630.272 838.03 619.569 838.03 607.28C838.03 594.793 836.474 584.04 833.361 575.021C830.34 566.003 825.9 559.066 820.041 554.21C814.273 549.354 807.315 546.925 799.167 546.925C790.836 546.925 783.787 549.403 778.019 554.358C772.251 559.313 767.857 566.3 764.835 575.319C761.906 584.337 760.441 594.991 760.441 607.28C760.441 619.569 761.952 630.272 764.973 639.39C767.994 648.507 772.343 655.593 778.019 660.647C783.787 665.603 790.836 668.08 799.167 668.08Z" fill="black"/>
<path d="M110 721.448V417H226.178C247.235 417 265.407 421.46 280.696 430.379C296.077 439.199 307.933 451.538 316.264 467.394C324.595 483.152 328.761 501.486 328.761 522.397C328.761 543.407 324.503 561.791 315.989 577.549C307.567 593.207 295.528 605.347 279.872 613.969C264.217 622.591 245.632 626.902 224.118 626.902H152.434V568.927H211.484C221.738 568.927 230.298 566.994 237.164 563.129C244.122 559.264 249.386 553.863 252.957 546.925C256.527 539.889 258.312 531.713 258.312 522.397C258.312 512.982 256.527 504.856 252.957 498.018C249.386 491.08 244.122 485.729 237.164 481.963C230.206 478.197 221.646 476.314 211.484 476.314H177.976V721.448H110Z" fill="black"/>
<path d="M496.227 627.649V721.448H497.705V628.342C497.203 628.138 496.71 627.907 496.227 627.649Z" fill="black"/>
<path d="M496.227 564.804V595.316C496.715 594.863 497.21 594.429 497.705 594.017V566.251C497.705 565.828 497.702 565.407 497.696 564.987C497.205 564.92 496.715 564.859 496.227 564.804Z" fill="black"/>
<path fill-rule="evenodd" clip-rule="evenodd" d="M335.797 718.029C346.234 722.885 358.181 725.313 371.639 725.313C400.832 725.313 416.644 724.374 432.68 723.422C449.178 722.442 465.914 721.448 497.705 721.448H563.38V591.225C563.471 582.504 564.936 575.071 567.774 568.927C570.704 562.782 574.823 558.075 580.133 554.804C585.535 551.435 591.76 549.75 598.81 549.75C609.43 549.75 617.715 553.318 623.666 560.453C629.708 567.589 632.683 577.499 632.592 590.184V721.448H699.744V575.913C699.836 558.768 696.815 543.804 690.681 531.019C684.639 518.136 676.124 508.126 665.138 500.991C654.244 493.756 641.381 490.139 626.55 490.139C610.986 490.139 597.574 494.153 586.313 502.18C575.052 510.108 567.087 521.059 562.418 535.033H560.084V493.112H496.227V550.041L496.156 550.083C494.993 544.344 493.175 538.981 490.701 533.992C486.124 524.578 479.623 516.649 471.201 510.207C462.778 503.667 452.891 498.711 441.538 495.342C430.186 491.873 417.781 490.139 404.323 490.139C385.463 490.139 369.305 493.31 355.847 499.653C342.48 505.896 331.952 514.518 324.262 525.519C316.663 536.42 311.948 548.808 310.117 562.683L372.051 565.062C373.516 557.728 376.949 551.98 382.351 547.817C387.752 543.655 394.893 541.574 403.774 541.574C412.013 541.574 418.559 543.655 423.411 547.817C428.263 551.98 430.69 557.876 430.69 565.508V566.251C430.69 570.909 428.996 574.526 425.608 577.103C422.313 579.58 417.003 581.513 409.679 582.9C402.355 584.189 392.696 585.427 380.703 586.617C369.991 587.608 359.921 589.54 350.491 592.414C341.061 595.189 332.73 599.302 325.498 604.753C318.265 610.203 312.589 617.289 308.469 626.011C304.349 634.732 302.29 645.435 302.29 658.12C302.29 673.184 305.265 685.721 311.216 695.73C317.258 705.641 325.452 713.074 335.797 718.029ZM496.227 550.437C496.204 550.319 496.18 550.201 496.156 550.083C492.335 552.419 489.829 556.443 489.473 561.09L489.224 564.316L492.895 564.521C493.98 564.581 495.097 564.677 496.227 564.804V595.316C492.962 598.34 489.953 602.171 488.605 605.289C487.01 608.983 487.084 615.112 488.774 619.198C490.417 623.171 493.105 625.98 496.227 627.649V721.448H497.705V628.342C505.59 631.544 515.48 628.016 518.56 618.086C521.607 608.266 517.609 592.987 511.226 590.058C507.699 588.439 506.56 588.593 501.495 591.372C500.28 592.039 498.989 592.951 497.705 594.017V566.251C497.705 565.828 497.702 565.407 497.696 564.987C502.335 565.615 507.082 566.745 510.746 568.134C515.992 570.124 516.322 569.937 517.158 564.498C517.859 559.944 514.722 553.27 510.646 550.647C506.981 548.289 502.642 547.551 499.163 548.696C498.119 549.039 497.136 549.492 496.227 550.041V550.437ZM496.227 627.649C496.71 627.907 497.203 628.138 497.705 628.342L496.227 627.649ZM496.227 595.316L497.705 594.017C497.21 594.429 496.715 594.863 496.227 595.316ZM448.843 563.054C440.806 565.203 435.695 572.409 435.652 581.654C435.631 585.961 435.99 587.574 437.663 590.7C441.439 597.755 450.332 602.798 459.246 602.94C465.263 603.036 467.71 601.666 470.001 596.919C471.077 594.689 471.268 592.903 470.989 587.702C470.071 570.588 460.5 559.937 448.843 563.054ZM529.403 590.974C527.012 592.813 527.429 594.633 530.914 597.569C532.617 599.004 535.329 601.454 536.94 603.013C540.368 606.329 540.998 606.489 540.954 604.032C540.9 600.963 539.152 596.578 536.584 593.068C533.937 589.45 532.085 588.91 529.403 590.974ZM536.031 613.095C532.848 615.227 532.84 618.034 536.011 621.214C537.312 622.519 538.832 623.588 539.388 623.588C540.941 623.588 545.392 618.31 545.392 616.469C545.392 614.493 542.12 611.491 539.97 611.495C539.116 611.496 537.343 612.216 536.031 613.095ZM425.901 632.023C407.239 638.427 401.926 663.338 414.736 684.375C416.769 687.713 420.484 692.495 422.992 695C428.566 700.57 443.429 711.516 452.967 717.077L460.028 721.194L477.536 720.977L495.044 720.761L495.691 717.753C497.15 710.974 491.928 692.935 483.955 677.214C467.191 644.16 452.688 630.699 434.052 630.899C431.284 630.929 427.616 631.435 425.901 632.023ZM399.65 633.931C392.148 636.814 388.337 639.493 382.349 646.096C369.811 659.918 354.026 693.616 350.46 714.169C349.914 717.322 349.626 720.185 349.822 720.533C350.205 721.214 411.03 721.434 411.03 720.755C411.03 720.529 409.075 717.787 406.685 714.661C393.537 697.461 389.595 675.655 395.933 655.186C398.206 647.847 400.052 644.041 404.407 637.722C406.435 634.78 408.094 632.211 408.094 632.012C408.094 631.153 405.119 631.828 399.65 633.931ZM517.069 672.103C511.05 678.355 508.992 683.66 506.796 698.595C505.791 705.431 504.483 713.086 503.888 715.606C503.293 718.126 502.807 720.407 502.807 720.676C502.807 720.944 512.694 721.164 524.777 721.164H546.747L547.63 718.224C549.76 711.136 546.515 699.88 539.009 688.329C535.233 682.516 522.906 667.941 521.766 667.941C521.386 667.941 519.272 669.813 517.069 672.103Z" fill="black"/>
<path d="M784.988 821.393L761.071 822.032C760.823 820.327 760.148 818.818 759.047 817.504C757.946 816.155 756.508 815.107 754.733 814.361C752.993 813.58 750.968 813.19 748.66 813.19C745.642 813.19 743.067 813.793 740.936 815.001C738.841 816.208 737.811 817.842 737.847 819.901C737.811 821.499 738.451 822.884 739.765 824.056C741.114 825.228 743.511 826.169 746.956 826.879L762.723 829.862C770.89 831.425 776.963 834.017 780.94 837.639C784.953 841.261 786.977 846.055 787.012 852.021C786.977 857.632 785.308 862.515 782.005 866.67C778.738 870.825 774.264 874.056 768.582 876.364C762.9 878.637 756.402 879.773 749.086 879.773C737.403 879.773 728.188 877.376 721.441 872.582C714.729 867.753 710.894 861.29 709.935 853.193L735.663 852.554C736.231 855.537 737.705 857.81 740.084 859.372C742.463 860.935 745.5 861.716 749.193 861.716C752.531 861.716 755.248 861.094 757.343 859.852C759.438 858.609 760.503 856.957 760.539 854.898C760.503 853.051 759.686 851.577 758.088 850.477C756.49 849.34 753.987 848.452 750.578 847.813L736.302 845.097C728.099 843.605 721.991 840.853 717.978 836.84C713.966 832.792 711.977 827.643 712.012 821.393C711.977 815.924 713.433 811.254 716.38 807.383C719.328 803.477 723.518 800.494 728.951 798.435C734.385 796.375 740.794 795.345 748.181 795.345C759.26 795.345 767.996 797.671 774.388 802.323C780.78 806.94 784.314 813.296 784.988 821.393Z" fill="black"/>
<path d="M713.478 769.138V878.229H687.43V769.138H713.478Z" fill="black"/>
<path d="M651.795 879.773C643.237 879.773 635.851 878.087 629.636 874.713C623.457 871.304 618.699 866.457 615.36 860.171C612.058 853.85 610.407 846.339 610.407 837.639C610.407 829.187 612.076 821.801 615.414 815.48C618.752 809.124 623.457 804.187 629.529 800.672C635.602 797.121 642.757 795.345 650.996 795.345C656.82 795.345 662.147 796.251 666.976 798.062C671.806 799.873 675.978 802.554 679.494 806.105C683.01 809.656 685.744 814.042 687.697 819.262C689.65 824.447 690.627 830.395 690.627 837.107V843.605H619.515V828.477H666.39C666.355 825.707 665.698 823.239 664.419 821.073C663.141 818.907 661.383 817.22 659.146 816.013C656.944 814.77 654.405 814.148 651.529 814.148C648.617 814.148 646.007 814.805 643.699 816.119C641.39 817.398 639.561 819.156 638.212 821.393C636.863 823.594 636.152 826.098 636.081 828.903V844.298C636.081 847.636 636.738 850.565 638.052 853.087C639.366 855.572 641.23 857.508 643.645 858.893C646.06 860.278 648.936 860.97 652.275 860.97C654.583 860.97 656.678 860.651 658.56 860.011C660.442 859.372 662.058 858.431 663.407 857.188C664.757 855.945 665.769 854.418 666.444 852.607L690.36 853.3C689.366 858.662 687.182 863.332 683.809 867.309C680.471 871.251 676.085 874.322 670.652 876.524C665.218 878.69 658.933 879.773 651.795 879.773Z" fill="black"/>
<path d="M567.394 796.411L580.871 823.364L594.827 796.411H621.087L598.236 837.32L621.939 878.229H595.892L580.871 851.063L566.222 878.229H539.802L563.559 837.32L540.974 796.411H567.394Z" fill="black"/>
<path d="M519.108 878.229V796.411H545.156V878.229H519.108Z" fill="black"/>
<path fill-rule="evenodd" clip-rule="evenodd" d="M437.756 878.229V844.351H464.124V878.229H437.756ZM464.124 823.577V844.351H482.021C490.366 844.351 497.575 842.806 503.648 839.717C509.72 836.627 514.39 832.277 517.657 826.666C520.96 821.02 522.611 814.433 522.611 806.904C522.611 799.411 520.995 792.842 517.763 787.195C514.532 781.513 509.933 777.092 503.967 773.932C498.037 770.736 490.988 769.138 482.82 769.138H437.756V823.577H464.124ZM464.124 823.577H477.121C481.098 823.577 484.418 822.884 487.082 821.499C489.781 820.114 491.822 818.179 493.207 815.693C494.592 813.172 495.285 810.242 495.285 806.904C495.285 803.531 494.592 800.619 493.207 798.168C491.822 795.683 489.781 793.765 487.082 792.415C484.383 791.066 481.062 790.391 477.121 790.391H464.124V823.577Z" fill="black"/>
<path d="M413 834.729V844.351H437.756V823.577H413V834.729Z" fill="black"/>
<path d="M412 823H437V845H412V823Z" fill="#255073"/>
<path fill-rule="evenodd" clip-rule="evenodd" d="M529.364 746.828L533.828 739.686C533.368 739.657 532.904 739.643 532.437 739.643C524.833 739.643 518.153 743.459 514.348 749.213L521.123 759.86L520.898 760.217L520.631 759.797L520.894 760.223L520.898 760.217L520.953 760.304L521.177 759.944L521.153 759.907L521.123 759.86L526.722 751.007H526.72L526.753 750.958L529.364 746.828ZM514.172 749.458L514.198 749.443L514.186 749.461L514.18 749.471L514.172 749.458ZM514.12 749.565L518.457 756.381L520.864 760.27L520.858 760.279L520.876 760.29L526.286 769.03H512.999C512.86 768.743 512.728 768.452 512.602 768.157C511.57 765.737 511 763.085 511 760.305C511 756.372 512.14 752.695 514.12 749.565ZM526.61 769.554L526.626 769.579L526.669 769.554H526.839L526.837 769.55H526.695L526.669 769.554H526.61ZM513.389 769.794C516.731 776.012 523.253 780.386 530.881 780.914L531.138 781.071L531.222 780.935L531.281 780.938L538.225 769.603H538.167L538.396 769.23L538.383 769.222L538.179 769.55H538.07V769.603H538.167L538.07 769.761V769.794H538.05L531.222 780.935C531.108 780.928 530.994 780.921 530.881 780.914L530.812 780.872L537.602 769.794L526.992 769.794L513.389 769.794ZM551.419 750.695H527.399L534.259 739.716C541.722 740.322 548.098 744.613 551.419 750.695ZM538.477 751.459L550.776 771.009C552.742 767.887 553.874 764.224 553.874 760.305C553.874 757.14 553.135 754.14 551.815 751.459H538.477ZM527.292 769.554H537.749L537.751 769.55H527.29L527.292 769.554ZM532.437 780.967C532.069 780.967 531.702 780.958 531.339 780.941L543.768 760.651L550.504 771.431C546.695 777.166 540.026 780.967 532.437 780.967ZM543.738 760.603L543.921 760.305L543.737 760.601L543.738 760.603Z" fill="black"/>
<path d="M452.198 1103.77C331.762 1068.43 227.97 991.117 159.635 885.838C91.2991 780.559 62.9416 654.282 79.7018 529.894C96.4621 405.506 157.231 291.238 250.995 207.801C344.758 124.364 465.311 77.2789 590.805 75.0805C716.298 72.8822 838.426 115.716 935.054 195.817C1031.68 275.919 1096.42 387.989 1117.52 511.714C1138.63 635.439 1114.71 762.631 1050.11 870.239C985.5 977.846 884.48 1058.75 765.356 1098.28L763.838 1093.7C881.869 1054.54 981.961 974.378 1045.97 867.758C1109.99 761.138 1133.69 635.113 1112.77 512.524C1091.86 389.935 1027.72 278.895 931.978 199.528C836.237 120.162 715.23 77.7214 590.889 79.8996C466.548 82.0778 347.101 128.73 254.199 211.401C161.296 294.072 101.085 407.291 84.4785 530.538C67.8721 653.784 95.9692 778.902 163.678 883.214C231.386 987.526 334.225 1064.13 453.555 1099.14L452.198 1103.77Z" fill="black" fill-opacity="0.05"/>
<path d="M544.133 1101.87C544.133 1103.76 543.773 1105.45 543.055 1106.95C542.336 1108.44 541.32 1109.7 540.008 1110.75C538.695 1111.78 537.125 1112.58 535.297 1113.14C533.469 1113.69 531.453 1113.96 529.25 1113.96C528.984 1113.96 528.75 1113.89 528.547 1113.75C528.359 1113.59 528.266 1113.37 528.266 1113.07C528.266 1112.84 528.352 1112.63 528.523 1112.46C528.695 1112.29 528.906 1112.2 529.156 1112.2C531.125 1112.2 532.922 1111.98 534.547 1111.52C536.172 1111.07 537.562 1110.41 538.719 1109.53C539.875 1108.64 540.773 1107.55 541.414 1106.27C542.055 1104.99 542.375 1103.52 542.375 1101.87C542.375 1100.18 542 1098.68 541.25 1097.37C540.516 1096.05 539.477 1094.95 538.133 1094.04C536.805 1093.13 535.211 1092.45 533.352 1091.98C531.508 1091.51 529.477 1091.27 527.258 1091.27C525.164 1091.27 523.133 1091.45 521.164 1091.79C519.211 1092.13 517.375 1092.62 515.656 1093.24C513.938 1093.87 512.367 1094.62 510.945 1095.49C509.539 1096.37 508.328 1097.33 507.312 1098.38C506.312 1099.42 505.531 1100.55 504.969 1101.75C504.406 1102.94 504.125 1104.17 504.125 1105.45C504.125 1106.58 504.32 1107.56 504.711 1108.41C505.102 1109.25 505.617 1109.96 506.258 1110.54C506.914 1111.1 507.664 1111.52 508.508 1111.8C509.352 1112.09 510.234 1112.23 511.156 1112.23C512.25 1112.23 513.219 1112.11 514.062 1111.88C514.922 1111.64 515.641 1111.38 516.219 1111.1C516.812 1110.82 517.266 1110.56 517.578 1110.33C517.891 1110.08 518.062 1109.94 518.094 1109.91C518.266 1109.73 518.469 1109.65 518.703 1109.65C518.938 1109.65 519.141 1109.74 519.312 1109.93C519.5 1110.1 519.594 1110.3 519.594 1110.54C519.594 1110.8 519.5 1111.02 519.312 1111.17C519.281 1111.2 519.078 1111.37 518.703 1111.66C518.344 1111.96 517.812 1112.29 517.109 1112.65C516.422 1112.99 515.578 1113.3 514.578 1113.59C513.578 1113.87 512.438 1114.01 511.156 1114.01C509.984 1114.01 508.859 1113.81 507.781 1113.42C506.719 1113.03 505.781 1112.47 504.969 1111.73C504.172 1110.98 503.531 1110.09 503.047 1109.04C502.578 1107.98 502.344 1106.78 502.344 1105.45C502.344 1104 502.641 1102.6 503.234 1101.26C503.844 1099.9 504.688 1098.63 505.766 1097.46C506.859 1096.27 508.164 1095.2 509.68 1094.23C511.195 1093.24 512.875 1092.41 514.719 1091.72C516.562 1091.02 518.539 1090.48 520.648 1090.1C522.758 1089.71 524.945 1089.52 527.211 1089.52C529.695 1089.52 531.977 1089.8 534.055 1090.36C536.133 1090.92 537.914 1091.73 539.398 1092.8C540.898 1093.86 542.062 1095.16 542.891 1096.69C543.719 1098.2 544.133 1099.93 544.133 1101.87ZM530.211 1096.29C530.445 1096.29 530.648 1096.38 530.82 1096.55C531.008 1096.7 531.102 1096.91 531.102 1097.18C531.102 1097.34 531.055 1097.48 530.961 1097.6C530.883 1097.73 530.781 1097.84 530.656 1097.95C529.781 1098.64 529.078 1099.38 528.547 1100.18C528.031 1100.98 527.633 1101.84 527.352 1102.76C527.086 1103.66 526.906 1104.63 526.812 1105.66C526.734 1106.7 526.695 1107.77 526.695 1108.9V1111.85C526.695 1113.79 526.523 1115.63 526.18 1117.38C525.836 1119.12 525.25 1120.64 524.422 1121.95C523.609 1123.27 522.516 1124.3 521.141 1125.07C519.766 1125.85 518.039 1126.24 515.961 1126.24C515.023 1126.24 514.102 1126.12 513.195 1125.89C512.305 1125.67 511.461 1125.35 510.664 1124.93C509.867 1124.49 509.133 1123.96 508.461 1123.34C507.789 1122.71 507.211 1122.01 506.727 1121.23C506.695 1121.16 506.664 1121.09 506.633 1121.02C506.602 1120.92 506.586 1120.84 506.586 1120.76C506.586 1120.54 506.664 1120.34 506.82 1120.17C506.992 1119.98 507.211 1119.89 507.477 1119.89C507.633 1119.89 507.773 1119.94 507.898 1120.03C508.039 1120.11 508.156 1120.21 508.25 1120.34C509.25 1121.73 510.383 1122.77 511.648 1123.48C512.914 1124.16 514.352 1124.51 515.961 1124.51C517.805 1124.51 519.305 1124.17 520.461 1123.5C521.633 1122.81 522.547 1121.88 523.203 1120.71C523.875 1119.52 524.328 1118.14 524.562 1116.56C524.812 1114.98 524.938 1113.3 524.938 1111.52V1108.55C524.938 1107.5 524.984 1106.42 525.078 1105.31C525.172 1104.19 525.383 1103.09 525.711 1102.03C526.055 1100.95 526.539 1099.94 527.164 1098.98C527.805 1098.02 528.664 1097.16 529.742 1096.43C529.805 1096.4 529.883 1096.37 529.977 1096.34C530.07 1096.3 530.148 1096.29 530.211 1096.29ZM547.602 1123.01C547.852 1122.48 548.141 1121.91 548.469 1121.3C548.797 1120.67 549.148 1120.04 549.523 1119.4C549.898 1118.74 550.297 1118.09 550.719 1117.45C551.141 1116.81 551.578 1116.21 552.031 1115.65C552.484 1115.1 552.938 1114.71 553.391 1114.48C553.859 1114.23 554.297 1114.1 554.703 1114.1C555.109 1114.1 555.461 1114.19 555.758 1114.36C556.07 1114.52 556.32 1114.73 556.508 1115.02C556.711 1115.3 556.859 1115.62 556.953 1116C557.062 1116.38 557.117 1116.78 557.117 1117.22C557.117 1117.58 557.078 1118.06 557 1118.67C556.938 1119.27 556.906 1119.89 556.906 1120.55C556.906 1120.92 556.922 1121.3 556.953 1121.67C557 1122.03 557.07 1122.36 557.164 1122.66C557.273 1122.94 557.43 1123.17 557.633 1123.36C557.836 1123.53 558.102 1123.62 558.43 1123.62C558.805 1123.62 559.18 1123.52 559.555 1123.31C559.93 1123.09 560.297 1122.81 560.656 1122.47C561.016 1122.11 561.359 1121.72 561.688 1121.3C562.016 1120.86 562.312 1120.43 562.578 1120.01C562.844 1119.57 563.078 1119.16 563.281 1118.77C563.484 1118.36 563.648 1118.02 563.773 1117.76C563.93 1117.4 564.203 1117.22 564.594 1117.22C564.859 1117.22 565.07 1117.31 565.227 1117.5C565.383 1117.69 565.461 1117.89 565.461 1118.11C565.461 1118.23 565.438 1118.35 565.391 1118.46C565.328 1118.59 565.203 1118.84 565.016 1119.23C564.844 1119.62 564.602 1120.08 564.289 1120.59C563.992 1121.11 563.641 1121.65 563.234 1122.21C562.828 1122.77 562.375 1123.3 561.875 1123.78C561.391 1124.25 560.859 1124.64 560.281 1124.95C559.719 1125.25 559.125 1125.4 558.5 1125.4C557.781 1125.4 557.203 1125.25 556.766 1124.95C556.328 1124.64 555.984 1124.25 555.734 1123.78C555.5 1123.31 555.336 1122.79 555.242 1122.21C555.164 1121.63 555.125 1121.07 555.125 1120.52C555.125 1120.24 555.133 1119.95 555.148 1119.63C555.18 1119.3 555.211 1118.98 555.242 1118.67C555.273 1118.36 555.297 1118.07 555.312 1117.8C555.344 1117.52 555.359 1117.29 555.359 1117.1C555.359 1116.62 555.289 1116.29 555.148 1116.12C555.023 1115.95 554.875 1115.86 554.703 1115.86C554.453 1115.86 554.164 1116.01 553.836 1116.3C553.523 1116.59 553.188 1116.96 552.828 1117.43C552.484 1117.9 552.133 1118.43 551.773 1119.02C551.43 1119.6 551.094 1120.18 550.766 1120.76C550.438 1121.34 550.141 1121.89 549.875 1122.42C549.609 1122.94 549.391 1123.37 549.219 1123.71C548.891 1124.37 548.555 1124.8 548.211 1125.02C547.883 1125.26 547.586 1125.38 547.32 1125.38C546.836 1125.38 546.461 1125.19 546.195 1124.81C545.945 1124.42 545.82 1123.95 545.82 1123.41V1121.93C545.82 1118.98 545.82 1116.16 545.82 1113.49C545.836 1110.8 545.875 1108.31 545.938 1106.02C546.016 1103.7 546.133 1101.62 546.289 1099.76C546.461 1097.88 546.711 1096.29 547.039 1094.98C547.367 1093.65 547.781 1092.62 548.281 1091.91C548.797 1091.19 549.438 1090.83 550.203 1090.83C550.859 1090.83 551.414 1091.01 551.867 1091.37C552.32 1091.73 552.688 1092.22 552.969 1092.84C553.25 1093.45 553.453 1094.17 553.578 1095C553.703 1095.81 553.766 1096.67 553.766 1097.58C553.766 1099.42 553.594 1101.23 553.25 1103.02C552.922 1104.78 552.477 1106.51 551.914 1108.2C551.352 1109.88 550.695 1111.53 549.945 1113.14C549.195 1114.73 548.406 1116.29 547.578 1117.8C547.578 1118.09 547.578 1118.42 547.578 1118.81C547.578 1119.2 547.578 1119.59 547.578 1119.98C547.578 1120.38 547.578 1120.74 547.578 1121.09C547.578 1121.43 547.578 1121.7 547.578 1121.91L547.602 1123.01ZM547.602 1114.36C548.258 1112.92 548.852 1111.52 549.383 1110.16C549.93 1108.79 550.391 1107.42 550.766 1106.06C551.156 1104.7 551.461 1103.33 551.68 1101.94C551.898 1100.53 552.008 1099.07 552.008 1097.55C552.008 1097.3 551.992 1096.91 551.961 1096.36C551.945 1095.81 551.875 1095.26 551.75 1094.7C551.641 1094.13 551.461 1093.64 551.211 1093.22C550.977 1092.8 550.641 1092.59 550.203 1092.59C549.859 1092.59 549.562 1092.82 549.312 1093.29C549.062 1093.74 548.844 1094.37 548.656 1095.16C548.469 1095.95 548.312 1096.86 548.188 1097.91C548.062 1098.95 547.961 1100.06 547.883 1101.23C547.805 1102.41 547.742 1103.61 547.695 1104.84C547.664 1106.08 547.641 1107.28 547.625 1108.45C547.609 1109.61 547.602 1110.7 547.602 1111.71C547.602 1112.73 547.602 1113.61 547.602 1114.36ZM574.602 1122.42C574.211 1122.42 573.867 1122.39 573.57 1122.33C573.336 1122.8 573.055 1123.23 572.727 1123.64C572.398 1124.03 572.016 1124.38 571.578 1124.67C571.156 1124.97 570.68 1125.2 570.148 1125.38C569.617 1125.55 569.039 1125.63 568.414 1125.63C567.68 1125.63 567.008 1125.5 566.398 1125.23C565.789 1124.98 565.258 1124.63 564.805 1124.18C564.352 1123.71 564 1123.16 563.75 1122.52C563.5 1121.86 563.375 1121.14 563.375 1120.36C563.375 1119.36 563.555 1118.49 563.914 1117.76C564.273 1117.01 564.688 1116.39 565.156 1115.91C565.625 1115.41 566.094 1115.04 566.562 1114.8C567.031 1114.55 567.383 1114.43 567.617 1114.43C567.883 1114.43 568.078 1114.5 568.203 1114.64C568.344 1114.78 568.414 1114.97 568.414 1115.2C568.414 1115.47 568.328 1115.67 568.156 1115.81C568 1115.94 567.797 1116.06 567.547 1116.19C567.297 1116.31 567.031 1116.49 566.75 1116.73C566.469 1116.95 566.203 1117.23 565.953 1117.57C565.719 1117.91 565.523 1118.32 565.367 1118.79C565.211 1119.26 565.133 1119.78 565.133 1120.36C565.133 1120.88 565.211 1121.36 565.367 1121.81C565.523 1122.25 565.75 1122.63 566.047 1122.96C566.344 1123.27 566.695 1123.52 567.102 1123.71C567.508 1123.88 567.961 1123.97 568.461 1123.97C569.352 1123.97 570.086 1123.77 570.664 1123.36C571.258 1122.94 571.711 1122.41 572.023 1121.77C571.102 1121.28 570.344 1120.59 569.75 1119.7C569.156 1118.81 568.859 1117.81 568.859 1116.7C568.859 1115.81 569.07 1115.09 569.492 1114.52C569.93 1113.96 570.5 1113.68 571.203 1113.68C571.625 1113.68 572.023 1113.78 572.398 1113.98C572.773 1114.19 573.102 1114.51 573.383 1114.95C573.68 1115.38 573.914 1115.95 574.086 1116.63C574.258 1117.32 574.344 1118.14 574.344 1119.09C574.344 1119.59 574.281 1120.12 574.156 1120.66C574.25 1120.68 574.344 1120.69 574.438 1120.69C574.531 1120.69 574.633 1120.69 574.742 1120.69C575.273 1120.69 575.75 1120.62 576.172 1120.5C576.594 1120.38 576.977 1120.19 577.32 1119.94C577.664 1119.69 577.969 1119.37 578.234 1118.98C578.516 1118.59 578.781 1118.13 579.031 1117.62C579.078 1117.52 579.18 1117.44 579.336 1117.36C579.492 1117.27 579.648 1117.22 579.805 1117.22C580.008 1117.22 580.195 1117.3 580.367 1117.48C580.555 1117.63 580.648 1117.84 580.648 1118.11C580.648 1118.23 580.617 1118.38 580.555 1118.53C580.492 1118.67 580.43 1118.8 580.367 1118.93C580.102 1119.4 579.789 1119.85 579.43 1120.29C579.086 1120.71 578.672 1121.09 578.188 1121.41C577.719 1121.73 577.188 1121.98 576.594 1122.16C576 1122.35 575.336 1122.44 574.602 1122.42ZM570.594 1116.52C570.594 1116.81 570.633 1117.12 570.711 1117.45C570.789 1117.78 570.906 1118.11 571.062 1118.44C571.234 1118.75 571.438 1119.05 571.672 1119.35C571.922 1119.63 572.211 1119.88 572.539 1120.08C572.586 1119.75 572.609 1119.43 572.609 1119.12C572.609 1118.7 572.578 1118.27 572.516 1117.83C572.453 1117.39 572.359 1116.99 572.234 1116.63C572.125 1116.26 571.984 1115.96 571.812 1115.74C571.641 1115.51 571.438 1115.39 571.203 1115.39C571.109 1115.39 570.984 1115.46 570.828 1115.6C570.672 1115.74 570.594 1116.05 570.594 1116.52ZM597.969 1101.54C597.969 1101.79 597.883 1101.99 597.711 1102.15C597.539 1102.29 597.328 1102.36 597.078 1102.36H585.195V1102.62C585.195 1103.57 585.125 1104.59 584.984 1105.66C584.844 1106.74 584.648 1107.82 584.398 1108.9C584.164 1109.96 583.891 1111 583.578 1112.02C583.281 1113.03 582.969 1113.97 582.641 1114.83C582.328 1115.69 582.016 1116.44 581.703 1117.08C581.391 1117.7 581.109 1118.17 580.859 1118.48C581.062 1119.2 581.305 1119.88 581.586 1120.5C581.867 1121.11 582.18 1121.65 582.523 1122.12C582.883 1122.57 583.266 1122.93 583.672 1123.2C584.078 1123.46 584.516 1123.59 584.984 1123.59C585.531 1123.59 586.07 1123.37 586.602 1122.91C587.148 1122.45 587.648 1121.9 588.102 1121.27C588.57 1120.63 588.977 1119.99 589.32 1119.35C589.68 1118.7 589.938 1118.17 590.094 1117.78C590.25 1117.41 590.523 1117.22 590.914 1117.22C591.18 1117.22 591.391 1117.31 591.547 1117.5C591.719 1117.69 591.805 1117.89 591.805 1118.11C591.805 1118.22 591.781 1118.33 591.734 1118.44C591.688 1118.55 591.57 1118.8 591.383 1119.19C591.211 1119.58 590.977 1120.03 590.68 1120.55C590.398 1121.06 590.062 1121.61 589.672 1122.19C589.297 1122.75 588.867 1123.27 588.383 1123.73C587.914 1124.2 587.406 1124.59 586.859 1124.91C586.312 1125.22 585.734 1125.38 585.125 1125.38C584.047 1125.38 583.078 1125.02 582.219 1124.32C581.359 1123.62 580.625 1122.63 580.016 1121.37C579.422 1120.1 578.969 1118.6 578.656 1116.87C578.344 1115.13 578.188 1113.23 578.188 1111.17C578.188 1110.66 578.195 1110.05 578.211 1109.37C578.227 1108.66 578.258 1107.93 578.305 1107.16C578.352 1106.38 578.422 1105.59 578.516 1104.77C578.609 1103.95 578.734 1103.14 578.891 1102.36H570.477C570.227 1102.36 570.016 1102.29 569.844 1102.15C569.672 1101.99 569.586 1101.79 569.586 1101.54C569.586 1101.29 569.672 1101.09 569.844 1100.95C570.016 1100.8 570.227 1100.72 570.477 1100.72H579.289C579.445 1100.16 579.625 1099.64 579.828 1099.17C580.047 1098.7 580.289 1098.3 580.555 1097.95C580.836 1097.61 581.141 1097.34 581.469 1097.16C581.812 1096.95 582.188 1096.85 582.594 1096.85C582.984 1096.85 583.32 1096.95 583.602 1097.16C583.898 1097.34 584.148 1097.61 584.352 1097.95C584.555 1098.3 584.711 1098.7 584.82 1099.17C584.945 1099.64 585.039 1100.16 585.102 1100.72H597.078C597.328 1100.72 597.539 1100.8 597.711 1100.95C597.883 1101.09 597.969 1101.29 597.969 1101.54ZM580.32 1116.14C580.789 1115.11 581.211 1114 581.586 1112.81C581.977 1111.61 582.305 1110.4 582.57 1109.18C582.852 1107.96 583.062 1106.77 583.203 1105.59C583.359 1104.42 583.438 1103.34 583.438 1102.36H580.672C580.453 1103.33 580.273 1104.53 580.133 1105.97C580.008 1107.39 579.945 1109.12 579.945 1111.17C579.945 1112.31 579.977 1113.27 580.039 1114.05C580.102 1114.82 580.195 1115.52 580.32 1116.14ZM582.5 1098.61C582.359 1098.61 582.156 1098.77 581.891 1099.08C581.625 1099.38 581.359 1099.92 581.094 1100.72H583.344C583.266 1100.06 583.148 1099.55 582.992 1099.17C582.852 1098.8 582.688 1098.61 582.5 1098.61ZM580.695 1117.83V1117.85V1117.83ZM600.992 1122.42C600.602 1122.42 600.258 1122.39 599.961 1122.33C599.727 1122.8 599.445 1123.23 599.117 1123.64C598.789 1124.03 598.406 1124.38 597.969 1124.67C597.547 1124.97 597.07 1125.2 596.539 1125.38C596.008 1125.55 595.43 1125.63 594.805 1125.63C594.07 1125.63 593.398 1125.5 592.789 1125.23C592.18 1124.98 591.648 1124.63 591.195 1124.18C590.742 1123.71 590.391 1123.16 590.141 1122.52C589.891 1121.86 589.766 1121.14 589.766 1120.36C589.766 1119.36 589.945 1118.49 590.305 1117.76C590.664 1117.01 591.078 1116.39 591.547 1115.91C592.016 1115.41 592.484 1115.04 592.953 1114.8C593.422 1114.55 593.773 1114.43 594.008 1114.43C594.273 1114.43 594.469 1114.5 594.594 1114.64C594.734 1114.78 594.805 1114.97 594.805 1115.2C594.805 1115.47 594.719 1115.67 594.547 1115.81C594.391 1115.94 594.188 1116.06 593.938 1116.19C593.688 1116.31 593.422 1116.49 593.141 1116.73C592.859 1116.95 592.594 1117.23 592.344 1117.57C592.109 1117.91 591.914 1118.32 591.758 1118.79C591.602 1119.26 591.523 1119.78 591.523 1120.36C591.523 1120.88 591.602 1121.36 591.758 1121.81C591.914 1122.25 592.141 1122.63 592.438 1122.96C592.734 1123.27 593.086 1123.52 593.492 1123.71C593.898 1123.88 594.352 1123.97 594.852 1123.97C595.742 1123.97 596.477 1123.77 597.055 1123.36C597.648 1122.94 598.102 1122.41 598.414 1121.77C597.492 1121.28 596.734 1120.59 596.141 1119.7C595.547 1118.81 595.25 1117.81 595.25 1116.7C595.25 1115.81 595.461 1115.09 595.883 1114.52C596.32 1113.96 596.891 1113.68 597.594 1113.68C598.016 1113.68 598.414 1113.78 598.789 1113.98C599.164 1114.19 599.492 1114.51 599.773 1114.95C600.07 1115.38 600.305 1115.95 600.477 1116.63C600.648 1117.32 600.734 1118.14 600.734 1119.09C600.734 1119.59 600.672 1120.12 600.547 1120.66C600.641 1120.68 600.734 1120.69 600.828 1120.69C600.922 1120.69 601.023 1120.69 601.133 1120.69C601.664 1120.69 602.141 1120.62 602.562 1120.5C602.984 1120.38 603.367 1120.19 603.711 1119.94C604.055 1119.69 604.359 1119.37 604.625 1118.98C604.906 1118.59 605.172 1118.13 605.422 1117.62C605.469 1117.52 605.57 1117.44 605.727 1117.36C605.883 1117.27 606.039 1117.22 606.195 1117.22C606.398 1117.22 606.586 1117.3 606.758 1117.48C606.945 1117.63 607.039 1117.84 607.039 1118.11C607.039 1118.23 607.008 1118.38 606.945 1118.53C606.883 1118.67 606.82 1118.8 606.758 1118.93C606.492 1119.4 606.18 1119.85 605.82 1120.29C605.477 1120.71 605.062 1121.09 604.578 1121.41C604.109 1121.73 603.578 1121.98 602.984 1122.16C602.391 1122.35 601.727 1122.44 600.992 1122.42ZM596.984 1116.52C596.984 1116.81 597.023 1117.12 597.102 1117.45C597.18 1117.78 597.297 1118.11 597.453 1118.44C597.625 1118.75 597.828 1119.05 598.062 1119.35C598.312 1119.63 598.602 1119.88 598.93 1120.08C598.977 1119.75 599 1119.43 599 1119.12C599 1118.7 598.969 1118.27 598.906 1117.83C598.844 1117.39 598.75 1116.99 598.625 1116.63C598.516 1116.26 598.375 1115.96 598.203 1115.74C598.031 1115.51 597.828 1115.39 597.594 1115.39C597.5 1115.39 597.375 1115.46 597.219 1115.6C597.062 1115.74 596.984 1116.05 596.984 1116.52ZM613.859 1127.3C616.797 1123.47 618.836 1120.29 619.977 1117.76C620.055 1117.59 620.156 1117.46 620.281 1117.38C620.422 1117.29 620.578 1117.24 620.75 1117.24C621.016 1117.24 621.234 1117.34 621.406 1117.52C621.578 1117.7 621.664 1117.9 621.664 1118.13C621.664 1118.24 621.641 1118.35 621.594 1118.46C620.906 1120.02 619.93 1121.77 618.664 1123.69C617.398 1125.61 615.797 1127.78 613.859 1130.2C613.859 1131.19 613.867 1132.17 613.883 1133.16C613.898 1134.14 613.906 1135.22 613.906 1136.39C613.906 1137.56 613.875 1138.72 613.812 1139.86C613.766 1141.02 613.672 1142.11 613.531 1143.14C613.391 1144.19 613.195 1145.15 612.945 1146.02C612.711 1146.91 612.398 1147.68 612.008 1148.32C611.633 1148.98 611.172 1149.48 610.625 1149.84C610.094 1150.22 609.461 1150.41 608.727 1150.41C607.68 1150.41 606.875 1150.01 606.312 1149.21C605.75 1148.41 605.469 1147.28 605.469 1145.81C605.469 1145.03 605.539 1144.18 605.68 1143.26C605.836 1142.35 606.055 1141.41 606.336 1140.45C606.617 1139.48 606.953 1138.49 607.344 1137.49C607.75 1136.51 608.195 1135.55 608.68 1134.61C609.164 1133.67 609.688 1132.77 610.25 1131.91C610.828 1131.05 611.438 1130.27 612.078 1129.57C612.094 1128.48 612.102 1127.39 612.102 1126.31C612.117 1125.23 612.141 1124.24 612.172 1123.34C611.703 1123.93 611.141 1124.4 610.484 1124.74C609.844 1125.09 609.203 1125.26 608.562 1125.26C608.016 1125.26 607.516 1125.16 607.062 1124.95C606.625 1124.73 606.25 1124.44 605.938 1124.06C605.625 1123.67 605.383 1123.22 605.211 1122.7C605.039 1122.19 604.953 1121.62 604.953 1121.02C604.953 1119.8 605.156 1118.73 605.562 1117.8C605.984 1116.87 606.516 1116.09 607.156 1115.46C607.797 1114.84 608.5 1114.37 609.266 1114.05C610.047 1113.74 610.797 1113.59 611.516 1113.59C612 1113.59 612.445 1113.65 612.852 1113.77C613.258 1113.9 613.602 1114.04 613.883 1114.2C614.18 1114.35 614.406 1114.5 614.562 1114.64C614.719 1114.78 614.805 1114.86 614.82 1114.88C614.992 1115.06 615.078 1115.27 615.078 1115.51C615.078 1115.74 614.992 1115.95 614.82 1116.14C614.648 1116.31 614.445 1116.4 614.211 1116.4C613.992 1116.4 613.781 1116.31 613.578 1116.14C613.516 1116.09 613.43 1116.03 613.32 1115.95C613.227 1115.86 613.094 1115.77 612.922 1115.67C612.766 1115.58 612.57 1115.5 612.336 1115.44C612.117 1115.38 611.852 1115.34 611.539 1115.34C611.07 1115.34 610.555 1115.45 609.992 1115.67C609.43 1115.88 608.906 1116.2 608.422 1116.66C607.938 1117.11 607.531 1117.7 607.203 1118.41C606.875 1119.12 606.711 1119.97 606.711 1120.97C606.711 1121.72 606.875 1122.33 607.203 1122.8C607.531 1123.25 608.039 1123.48 608.727 1123.48C609.055 1123.48 609.398 1123.38 609.758 1123.2C610.133 1123.01 610.492 1122.72 610.836 1122.33C611.18 1121.94 611.477 1121.45 611.727 1120.85C611.992 1120.26 612.18 1119.55 612.289 1118.74C612.32 1118.52 612.422 1118.34 612.594 1118.2C612.766 1118.05 612.969 1117.97 613.203 1117.97C613.469 1117.97 613.672 1118.06 613.812 1118.25C613.969 1118.44 614.047 1118.65 614.047 1118.88C614.047 1118.9 614.039 1119.14 614.023 1119.61C614.008 1120.06 613.992 1120.67 613.977 1121.44C613.961 1122.2 613.938 1123.09 613.906 1124.11C613.891 1125.11 613.875 1126.17 613.859 1127.3ZM612.078 1132.43C611.344 1133.45 610.68 1134.55 610.086 1135.73C609.492 1136.94 608.984 1138.15 608.562 1139.37C608.141 1140.59 607.812 1141.77 607.578 1142.91C607.359 1144.06 607.25 1145.09 607.25 1146C607.25 1146.58 607.297 1147.04 607.391 1147.38C607.5 1147.73 607.625 1147.99 607.766 1148.18C607.922 1148.37 608.086 1148.49 608.258 1148.55C608.445 1148.62 608.617 1148.65 608.773 1148.65C609.258 1148.65 609.68 1148.45 610.039 1148.06C610.398 1147.67 610.703 1147.15 610.953 1146.49C611.203 1145.85 611.406 1145.11 611.562 1144.27C611.719 1143.42 611.836 1142.55 611.914 1141.64C611.992 1140.75 612.047 1139.86 612.078 1138.97C612.109 1138.08 612.125 1137.26 612.125 1136.51C612.125 1135.84 612.125 1135.16 612.125 1134.49C612.125 1133.82 612.109 1133.13 612.078 1132.43ZM622.461 1115.37C622.398 1115.79 622.32 1116.19 622.227 1116.56C622.133 1116.92 622.039 1117.24 621.945 1117.52C621.867 1117.79 621.797 1118.01 621.734 1118.18C621.672 1118.35 621.633 1118.45 621.617 1118.46C621.461 1118.82 621.188 1119 620.797 1119C620.578 1119 620.375 1118.92 620.188 1118.77C620 1118.59 619.906 1118.38 619.906 1118.13C619.906 1118.04 619.922 1117.97 619.953 1117.92C619.984 1117.88 620.031 1117.78 620.094 1117.64C620.156 1117.5 620.234 1117.27 620.328 1116.94C620.422 1116.61 620.539 1116.1 620.68 1115.41C620.414 1115.41 620.141 1115.41 619.859 1115.39C619.578 1115.38 619.32 1115.32 619.086 1115.23C618.836 1115.13 618.633 1114.98 618.477 1114.78C618.32 1114.58 618.242 1114.3 618.242 1113.94C618.242 1113.67 618.32 1113.31 618.477 1112.86C618.617 1112.41 618.812 1111.96 619.062 1111.52C619.312 1111.09 619.594 1110.71 619.906 1110.4C620.219 1110.07 620.531 1109.91 620.844 1109.91C621.203 1109.91 621.492 1110.04 621.711 1110.3C621.945 1110.57 622.125 1110.9 622.25 1111.29C622.375 1111.66 622.461 1112.06 622.508 1112.48C622.57 1112.91 622.602 1113.27 622.602 1113.59C622.867 1113.59 623.125 1113.59 623.375 1113.59C623.641 1113.57 623.891 1113.56 624.125 1113.56C625.016 1113.56 625.695 1113.76 626.164 1114.15C626.633 1114.54 626.867 1115.18 626.867 1116.07C626.867 1116.43 626.844 1116.8 626.797 1117.2C626.75 1117.59 626.695 1117.99 626.633 1118.41C626.57 1118.82 626.516 1119.23 626.469 1119.63C626.422 1120.04 626.398 1120.44 626.398 1120.83C626.398 1121.39 626.477 1121.86 626.633 1122.23C626.789 1122.59 626.984 1122.88 627.219 1123.1C627.453 1123.32 627.703 1123.48 627.969 1123.57C628.234 1123.65 628.477 1123.69 628.695 1123.69C629.367 1123.69 630 1123.47 630.594 1123.03C631.188 1122.59 631.734 1122.07 632.234 1121.46C632.734 1120.84 633.18 1120.18 633.57 1119.49C633.977 1118.8 634.312 1118.2 634.578 1117.69C634.656 1117.55 634.766 1117.44 634.906 1117.36C635.047 1117.28 635.195 1117.24 635.352 1117.24C635.633 1117.24 635.852 1117.34 636.008 1117.52C636.164 1117.7 636.242 1117.89 636.242 1118.11C636.242 1118.27 636.211 1118.41 636.148 1118.53C635.789 1119.17 635.367 1119.9 634.883 1120.71C634.414 1121.51 633.875 1122.26 633.266 1122.96C632.656 1123.66 631.969 1124.26 631.203 1124.74C630.453 1125.23 629.625 1125.47 628.719 1125.47C628.156 1125.47 627.625 1125.36 627.125 1125.14C626.625 1124.94 626.188 1124.64 625.812 1124.25C625.453 1123.84 625.164 1123.35 624.945 1122.77C624.727 1122.18 624.617 1121.52 624.617 1120.78C624.617 1120 624.695 1119.23 624.852 1118.46C625.008 1117.68 625.086 1116.94 625.086 1116.23C625.086 1115.94 625.016 1115.72 624.875 1115.58C624.75 1115.42 624.461 1115.34 624.008 1115.34C623.789 1115.34 623.547 1115.34 623.281 1115.34C623.031 1115.34 622.758 1115.35 622.461 1115.37ZM620.891 1113.63C620.891 1113.52 620.883 1113.38 620.867 1113.21C620.867 1113.02 620.852 1112.84 620.82 1112.67C620.805 1112.5 620.773 1112.35 620.727 1112.23C620.695 1112.1 620.656 1112.04 620.609 1112.04C620.562 1112.04 620.5 1112.1 620.422 1112.23C620.359 1112.34 620.289 1112.48 620.211 1112.65C620.133 1112.8 620.062 1112.98 620 1113.16C619.938 1113.35 619.891 1113.51 619.859 1113.63H620.891ZM652.695 1118.46C652.633 1118.59 652.5 1118.85 652.297 1119.26C652.109 1119.65 651.859 1120.1 651.547 1120.62C651.25 1121.13 650.898 1121.67 650.492 1122.23C650.086 1122.8 649.633 1123.31 649.133 1123.78C648.633 1124.25 648.094 1124.64 647.516 1124.95C646.938 1125.25 646.328 1125.4 645.688 1125.4C644.781 1125.4 644.016 1125.11 643.391 1124.53C642.781 1123.95 642.336 1123.23 642.055 1122.35C641.523 1123.24 640.891 1123.95 640.156 1124.48C639.422 1125 638.688 1125.26 637.953 1125.26C637.375 1125.26 636.852 1125.16 636.383 1124.95C635.914 1124.73 635.516 1124.44 635.188 1124.06C634.859 1123.67 634.602 1123.22 634.414 1122.7C634.242 1122.19 634.156 1121.62 634.156 1121.02C634.156 1119.8 634.359 1118.73 634.766 1117.8C635.188 1116.87 635.719 1116.09 636.359 1115.46C637 1114.84 637.703 1114.37 638.469 1114.05C639.25 1113.74 640 1113.59 640.719 1113.59C641.203 1113.59 641.648 1113.66 642.055 1113.8C642.461 1113.92 642.805 1114.06 643.086 1114.22C643.383 1114.38 643.609 1114.52 643.766 1114.66C643.922 1114.79 644.008 1114.86 644.023 1114.88C644.195 1115.08 644.281 1115.29 644.281 1115.51C644.281 1115.74 644.195 1115.95 644.023 1116.14C643.852 1116.31 643.648 1116.4 643.414 1116.4C643.164 1116.4 642.953 1116.31 642.781 1116.14C642.75 1116.11 642.68 1116.05 642.57 1115.98C642.461 1115.88 642.312 1115.79 642.125 1115.7C641.938 1115.6 641.711 1115.52 641.445 1115.46C641.195 1115.38 640.906 1115.34 640.578 1115.34C640.094 1115.34 639.578 1115.45 639.031 1115.67C638.484 1115.89 637.984 1116.23 637.531 1116.7C637.078 1117.16 636.695 1117.73 636.383 1118.44C636.086 1119.12 635.938 1119.95 635.938 1120.9C635.938 1121.2 635.969 1121.5 636.031 1121.81C636.094 1122.11 636.203 1122.38 636.359 1122.63C636.516 1122.88 636.727 1123.09 636.992 1123.24C637.258 1123.4 637.586 1123.48 637.977 1123.48C638.258 1123.48 638.578 1123.38 638.938 1123.2C639.312 1123.01 639.664 1122.72 639.992 1122.33C640.336 1121.94 640.641 1121.45 640.906 1120.85C641.188 1120.26 641.383 1119.55 641.492 1118.74C641.523 1118.52 641.625 1118.34 641.797 1118.2C641.969 1118.05 642.172 1117.97 642.406 1117.97C642.625 1117.97 642.812 1118.05 642.969 1118.23C643.141 1118.4 643.234 1118.59 643.25 1118.81C643.266 1119.11 643.297 1119.53 643.344 1120.08C643.391 1120.61 643.492 1121.14 643.648 1121.67C643.82 1122.2 644.07 1122.66 644.398 1123.05C644.727 1123.45 645.18 1123.64 645.758 1123.64C646.133 1123.64 646.5 1123.54 646.859 1123.34C647.234 1123.13 647.594 1122.87 647.938 1122.54C648.297 1122.2 648.633 1121.81 648.945 1121.39C649.273 1120.95 649.57 1120.52 649.836 1120.08C650.102 1119.64 650.336 1119.22 650.539 1118.81C650.742 1118.41 650.914 1118.05 651.055 1117.76C651.133 1117.59 651.242 1117.45 651.383 1117.36C651.539 1117.27 651.703 1117.22 651.875 1117.22C652.141 1117.22 652.352 1117.32 652.508 1117.52C652.68 1117.71 652.766 1117.91 652.766 1118.13C652.766 1118.24 652.742 1118.35 652.695 1118.46ZM663.102 1118.46C663.102 1119.9 662.844 1121.12 662.328 1122.14C661.812 1123.16 661.18 1123.93 660.43 1124.46H660.523C661.445 1124.46 662.281 1124.26 663.031 1123.85C663.797 1123.43 664.484 1122.9 665.094 1122.26C665.703 1121.6 666.25 1120.88 666.734 1120.08C667.219 1119.28 667.648 1118.51 668.023 1117.76C668.102 1117.59 668.211 1117.45 668.352 1117.36C668.508 1117.27 668.672 1117.22 668.844 1117.22C669.109 1117.22 669.32 1117.31 669.477 1117.5C669.633 1117.69 669.711 1117.89 669.711 1118.11C669.711 1118.23 669.688 1118.35 669.641 1118.46C669.234 1119.37 668.75 1120.28 668.188 1121.2C667.625 1122.11 666.969 1122.93 666.219 1123.66C665.469 1124.4 664.625 1124.99 663.688 1125.45C662.75 1125.91 661.711 1126.15 660.57 1126.15C659.742 1126.15 658.938 1126.02 658.156 1125.75C657.375 1125.5 656.688 1125.1 656.094 1124.55C655.875 1124.38 655.688 1124.2 655.531 1124.02C655.375 1123.81 655.25 1123.62 655.156 1123.45C655.125 1123.42 655.109 1123.39 655.109 1123.36C655.016 1123.22 654.969 1123.07 654.969 1122.91C654.969 1122.71 655.039 1122.52 655.18 1122.35C655.195 1122.32 655.211 1122.3 655.227 1122.3C655.242 1122.29 655.258 1122.27 655.273 1122.26C655.43 1122.12 655.602 1122.04 655.789 1122.02H655.859C655.938 1122.02 655.992 1122.03 656.023 1122.05C656.039 1122.05 656.047 1122.05 656.047 1122.07C656.062 1122.07 656.078 1122.07 656.094 1122.07C656.141 1122.07 656.195 1122.09 656.258 1122.12C656.273 1122.13 656.289 1122.14 656.305 1122.14C656.445 1122.23 656.562 1122.35 656.656 1122.49C656.766 1122.68 656.891 1122.85 657.031 1123.01C657.156 1123.13 657.305 1123.25 657.477 1123.36C657.648 1123.45 657.844 1123.5 658.062 1123.5C658.453 1123.5 658.844 1123.38 659.234 1123.15C659.625 1122.91 659.977 1122.58 660.289 1122.14C660.602 1121.7 660.852 1121.17 661.039 1120.55C661.242 1119.92 661.344 1119.23 661.344 1118.46C661.344 1117.9 661.281 1117.42 661.156 1117.03C661.047 1116.62 660.898 1116.3 660.711 1116.05C660.539 1115.8 660.352 1115.62 660.148 1115.51C659.945 1115.38 659.75 1115.32 659.562 1115.32C659.141 1115.32 658.711 1115.54 658.273 1115.98C657.852 1116.41 657.43 1116.97 657.008 1117.64C656.586 1118.31 656.164 1119.05 655.742 1119.87C655.336 1120.68 654.922 1121.47 654.5 1122.23C654.469 1124.77 654.422 1127.18 654.359 1129.48C654.312 1131.77 654.219 1133.91 654.078 1135.88C653.953 1137.84 653.773 1139.62 653.539 1141.22C653.305 1142.81 652.984 1144.17 652.578 1145.3C652.172 1146.44 651.672 1147.31 651.078 1147.92C650.484 1148.53 649.758 1148.84 648.898 1148.84C648.633 1148.84 648.328 1148.78 647.984 1148.67C647.641 1148.56 647.32 1148.34 647.023 1147.99C646.727 1147.66 646.477 1147.19 646.273 1146.56C646.07 1145.94 645.969 1145.1 645.969 1144.05C645.969 1142.73 646.133 1141.19 646.461 1139.44C646.789 1137.69 647.258 1135.83 647.867 1133.86C648.461 1131.91 649.172 1129.9 650 1127.84C650.828 1125.77 651.742 1123.77 652.742 1121.81C652.742 1121.27 652.742 1120.73 652.742 1120.2C652.758 1119.66 652.766 1119.15 652.766 1118.65C652.562 1118.88 652.32 1119 652.039 1119C651.773 1119 651.562 1118.91 651.406 1118.72C651.25 1118.53 651.172 1118.33 651.172 1118.11C651.172 1118 651.195 1117.88 651.242 1117.76C651.617 1116.9 651.906 1116.09 652.109 1115.32C652.312 1114.54 652.461 1113.86 652.555 1113.28C652.664 1112.69 652.727 1112.22 652.742 1111.88C652.758 1111.53 652.766 1111.35 652.766 1111.34C652.766 1111.1 652.852 1110.9 653.023 1110.73C653.195 1110.55 653.406 1110.47 653.656 1110.47C653.891 1110.47 654.094 1110.55 654.266 1110.73C654.438 1110.88 654.523 1111.09 654.523 1111.34V1118.53C654.883 1117.92 655.242 1117.32 655.602 1116.73C655.961 1116.13 656.336 1115.6 656.727 1115.13C657.133 1114.66 657.562 1114.29 658.016 1114.01C658.484 1113.71 659 1113.56 659.562 1113.56C660.094 1113.56 660.578 1113.69 661.016 1113.94C661.453 1114.19 661.828 1114.53 662.141 1114.97C662.453 1115.41 662.688 1115.93 662.844 1116.54C663.016 1117.13 663.102 1117.77 663.102 1118.46ZM652.695 1125.98C651.93 1127.7 651.234 1129.43 650.609 1131.16C650 1132.9 649.484 1134.57 649.062 1136.18C648.625 1137.79 648.289 1139.3 648.055 1140.7C647.82 1142.11 647.703 1143.34 647.703 1144.41C647.703 1144.67 647.719 1144.96 647.75 1145.27C647.781 1145.59 647.844 1145.88 647.938 1146.14C648.031 1146.41 648.164 1146.62 648.336 1146.8C648.508 1146.98 648.734 1147.08 649.016 1147.08C649.531 1147.08 649.977 1146.75 650.352 1146.09C650.727 1145.45 651.039 1144.58 651.289 1143.47C651.555 1142.38 651.773 1141.11 651.945 1139.67C652.117 1138.25 652.25 1136.76 652.344 1135.2C652.453 1133.63 652.531 1132.05 652.578 1130.46C652.625 1128.88 652.664 1127.39 652.695 1125.98ZM669.898 1123.01C670.148 1122.48 670.438 1121.91 670.766 1121.3C671.094 1120.67 671.445 1120.04 671.82 1119.4C672.195 1118.74 672.594 1118.09 673.016 1117.45C673.438 1116.81 673.875 1116.21 674.328 1115.65C674.781 1115.1 675.234 1114.71 675.688 1114.48C676.156 1114.23 676.594 1114.1 677 1114.1C677.406 1114.1 677.758 1114.19 678.055 1114.36C678.367 1114.52 678.617 1114.73 678.805 1115.02C679.008 1115.3 679.156 1115.62 679.25 1116C679.359 1116.38 679.414 1116.78 679.414 1117.22C679.414 1117.58 679.375 1118.06 679.297 1118.67C679.234 1119.27 679.203 1119.89 679.203 1120.55C679.203 1120.92 679.219 1121.3 679.25 1121.67C679.297 1122.03 679.367 1122.36 679.461 1122.66C679.57 1122.94 679.727 1123.17 679.93 1123.36C680.133 1123.53 680.398 1123.62 680.727 1123.62C681.102 1123.62 681.477 1123.52 681.852 1123.31C682.227 1123.09 682.594 1122.81 682.953 1122.47C683.312 1122.11 683.656 1121.72 683.984 1121.3C684.312 1120.86 684.609 1120.43 684.875 1120.01C685.141 1119.57 685.375 1119.16 685.578 1118.77C685.781 1118.36 685.945 1118.02 686.07 1117.76C686.227 1117.4 686.5 1117.22 686.891 1117.22C687.156 1117.22 687.367 1117.31 687.523 1117.5C687.68 1117.69 687.758 1117.89 687.758 1118.11C687.758 1118.23 687.734 1118.35 687.688 1118.46C687.625 1118.59 687.5 1118.84 687.312 1119.23C687.141 1119.62 686.898 1120.08 686.586 1120.59C686.289 1121.11 685.938 1121.65 685.531 1122.21C685.125 1122.77 684.672 1123.3 684.172 1123.78C683.688 1124.25 683.156 1124.64 682.578 1124.95C682.016 1125.25 681.422 1125.4 680.797 1125.4C680.078 1125.4 679.5 1125.25 679.062 1124.95C678.625 1124.64 678.281 1124.25 678.031 1123.78C677.797 1123.31 677.633 1122.79 677.539 1122.21C677.461 1121.63 677.422 1121.07 677.422 1120.52C677.422 1120.24 677.43 1119.95 677.445 1119.63C677.477 1119.3 677.508 1118.98 677.539 1118.67C677.57 1118.36 677.594 1118.07 677.609 1117.8C677.641 1117.52 677.656 1117.29 677.656 1117.1C677.656 1116.62 677.586 1116.29 677.445 1116.12C677.32 1115.95 677.172 1115.86 677 1115.86C676.75 1115.86 676.461 1116.01 676.133 1116.3C675.82 1116.59 675.484 1116.96 675.125 1117.43C674.781 1117.9 674.43 1118.43 674.07 1119.02C673.727 1119.6 673.391 1120.18 673.062 1120.76C672.734 1121.34 672.438 1121.89 672.172 1122.42C671.906 1122.94 671.688 1123.37 671.516 1123.71C671.188 1124.37 670.852 1124.8 670.508 1125.02C670.18 1125.26 669.883 1125.38 669.617 1125.38C669.133 1125.38 668.758 1125.19 668.492 1124.81C668.242 1124.42 668.117 1123.95 668.117 1123.41V1121.93C668.117 1118.98 668.117 1116.16 668.117 1113.49C668.133 1110.8 668.172 1108.31 668.234 1106.02C668.312 1103.7 668.43 1101.62 668.586 1099.76C668.758 1097.88 669.008 1096.29 669.336 1094.98C669.664 1093.65 670.078 1092.62 670.578 1091.91C671.094 1091.19 671.734 1090.83 672.5 1090.83C673.156 1090.83 673.711 1091.01 674.164 1091.37C674.617 1091.73 674.984 1092.22 675.266 1092.84C675.547 1093.45 675.75 1094.17 675.875 1095C676 1095.81 676.062 1096.67 676.062 1097.58C676.062 1099.42 675.891 1101.23 675.547 1103.02C675.219 1104.78 674.773 1106.51 674.211 1108.2C673.648 1109.88 672.992 1111.53 672.242 1113.14C671.492 1114.73 670.703 1116.29 669.875 1117.8C669.875 1118.09 669.875 1118.42 669.875 1118.81C669.875 1119.2 669.875 1119.59 669.875 1119.98C669.875 1120.38 669.875 1120.74 669.875 1121.09C669.875 1121.43 669.875 1121.7 669.875 1121.91L669.898 1123.01ZM669.898 1114.36C670.555 1112.92 671.148 1111.52 671.68 1110.16C672.227 1108.79 672.688 1107.42 673.062 1106.06C673.453 1104.7 673.758 1103.33 673.977 1101.94C674.195 1100.53 674.305 1099.07 674.305 1097.55C674.305 1097.3 674.289 1096.91 674.258 1096.36C674.242 1095.81 674.172 1095.26 674.047 1094.7C673.938 1094.13 673.758 1093.64 673.508 1093.22C673.273 1092.8 672.938 1092.59 672.5 1092.59C672.156 1092.59 671.859 1092.82 671.609 1093.29C671.359 1093.74 671.141 1094.37 670.953 1095.16C670.766 1095.95 670.609 1096.86 670.484 1097.91C670.359 1098.95 670.258 1100.06 670.18 1101.23C670.102 1102.41 670.039 1103.61 669.992 1104.84C669.961 1106.08 669.938 1107.28 669.922 1108.45C669.906 1109.61 669.898 1110.7 669.898 1111.71C669.898 1112.73 669.898 1113.61 669.898 1114.36ZM694.812 1125.33C695.359 1124.78 695.914 1124.23 696.477 1123.66C697.039 1123.09 697.586 1122.48 698.117 1121.86C698.648 1121.23 699.141 1120.59 699.594 1119.91C700.062 1119.23 700.477 1118.5 700.836 1117.73C700.914 1117.56 701.023 1117.44 701.164 1117.36C701.305 1117.27 701.461 1117.22 701.633 1117.22C701.898 1117.22 702.109 1117.31 702.266 1117.5C702.438 1117.69 702.523 1117.9 702.523 1118.13C702.523 1118.26 702.5 1118.38 702.453 1118.48C701.969 1119.5 701.414 1120.43 700.789 1121.27C700.164 1122.12 699.508 1122.92 698.82 1123.69C698.133 1124.44 697.438 1125.16 696.734 1125.87C696.031 1126.59 695.359 1127.3 694.719 1128.02C694.656 1129.1 694.656 1130.18 694.719 1131.26C694.781 1132.35 694.812 1133.51 694.812 1134.73C694.812 1135.73 694.781 1136.73 694.719 1137.73C694.656 1138.73 694.555 1139.68 694.414 1140.59C694.273 1141.51 694.078 1142.37 693.828 1143.16C693.594 1143.96 693.289 1144.65 692.914 1145.23C692.539 1145.82 692.102 1146.28 691.602 1146.61C691.102 1146.95 690.516 1147.12 689.844 1147.12C688.734 1147.12 687.883 1146.74 687.289 1145.98C686.695 1145.21 686.398 1144.14 686.398 1142.77C686.398 1142.02 686.477 1141.21 686.633 1140.35C686.805 1139.49 687.039 1138.6 687.336 1137.68C687.633 1136.77 687.984 1135.85 688.391 1134.91C688.812 1133.98 689.266 1133.06 689.75 1132.17C690.234 1131.28 690.75 1130.43 691.297 1129.62C691.844 1128.82 692.398 1128.09 692.961 1127.44C692.992 1126.69 693.023 1125.91 693.055 1125.09C693.102 1124.3 693.148 1123.55 693.195 1122.87C692.789 1123.59 692.281 1124.16 691.672 1124.6C691.078 1125.04 690.422 1125.26 689.703 1125.26C688.516 1125.26 687.586 1124.86 686.914 1124.06C686.242 1123.27 685.906 1122.17 685.906 1120.78C685.906 1119.77 686 1118.84 686.188 1118.02C686.391 1117.17 686.602 1116.45 686.82 1115.86C687.055 1115.25 687.266 1114.79 687.453 1114.48C687.641 1114.15 687.734 1113.99 687.734 1114.01C687.906 1113.74 688.148 1113.61 688.461 1113.61C688.727 1113.61 688.938 1113.7 689.094 1113.89C689.266 1114.06 689.352 1114.27 689.352 1114.5C689.352 1114.67 689.305 1114.83 689.211 1114.97C689.227 1114.95 689.148 1115.09 688.977 1115.37C688.82 1115.63 688.641 1116.02 688.438 1116.54C688.25 1117.05 688.07 1117.67 687.898 1118.39C687.742 1119.11 687.664 1119.9 687.664 1120.76C687.664 1121.62 687.82 1122.29 688.133 1122.77C688.445 1123.26 688.953 1123.5 689.656 1123.5C690.547 1123.5 691.352 1122.84 692.07 1121.53C692.789 1120.2 693.398 1118.28 693.898 1115.77C693.93 1115.56 694.023 1115.4 694.18 1115.27C694.336 1115.13 694.523 1115.06 694.742 1115.06C694.992 1115.06 695.203 1115.15 695.375 1115.32C695.547 1115.49 695.633 1115.7 695.633 1115.95C695.633 1116 695.602 1116.28 695.539 1116.8C695.477 1117.3 695.398 1117.97 695.305 1118.81C695.227 1119.66 695.141 1120.64 695.047 1121.77C694.953 1122.88 694.875 1124.06 694.812 1125.33ZM692.938 1130.3C692.234 1131.31 691.586 1132.38 690.992 1133.51C690.414 1134.63 689.914 1135.75 689.492 1136.86C689.07 1137.97 688.742 1139.03 688.508 1140.05C688.273 1141.06 688.156 1141.97 688.156 1142.77C688.156 1143.58 688.289 1144.21 688.555 1144.66C688.82 1145.13 689.242 1145.37 689.82 1145.37C690.336 1145.37 690.789 1145.11 691.18 1144.59C691.586 1144.09 691.922 1143.38 692.188 1142.44C692.469 1141.5 692.68 1140.36 692.82 1139.02C692.961 1137.69 693.031 1136.2 693.031 1134.54C693.031 1133.87 693.016 1133.19 692.984 1132.5C692.969 1131.81 692.953 1131.08 692.938 1130.3Z" fill="black"/>
</svg>
