<svg width="1200" height="1200" viewBox="0 0 1200 1200" fill="none" xmlns="http://www.w3.org/2000/svg">
<rect width="1200" height="1200" fill="#ECF3D6"/>
<path fill-rule="evenodd" clip-rule="evenodd" d="M779.585 345.564C759.963 350.895 746.497 365.119 744.91 382.19L744.022 391.721L757.158 392.327C778.514 393.309 803.308 397.455 821.031 403.005C839.802 408.883 840.981 408.33 843.974 392.26C846.48 378.801 835.254 359.083 820.671 351.331C807.559 344.363 792.033 342.183 779.585 345.564ZM599.53 387.992C570.773 394.343 552.486 415.637 552.331 442.954C552.257 455.682 553.542 460.447 559.527 469.686C573.038 490.532 604.858 505.435 636.754 505.854C658.286 506.137 667.039 502.089 675.238 488.061C679.087 481.472 679.773 476.196 678.775 460.826C675.488 410.256 641.241 378.782 599.53 387.992ZM787.929 471.671C770.687 479.487 749.221 498.627 741.807 512.795C736.099 523.709 736.364 541.822 742.409 553.894C763.5 596.012 832.735 593.879 848.989 550.61C859.892 521.591 845.587 476.444 822.747 467.787C810.126 463.004 806.051 463.459 787.929 471.671ZM887.786 470.494C879.23 475.929 880.722 481.307 893.193 489.984C899.288 494.223 908.993 501.462 914.757 506.068C927.02 515.867 929.277 516.341 929.119 509.08C928.925 500.011 922.669 487.053 913.48 476.682C904.009 465.992 897.383 464.396 887.786 470.494ZM911.502 535.862C900.113 542.16 900.087 550.455 911.431 559.851C916.086 563.709 921.524 566.866 923.515 566.866C929.072 566.866 944.997 551.272 944.997 545.832C944.997 539.992 933.288 531.12 925.596 531.132C922.541 531.137 916.199 533.265 911.502 535.862ZM517.443 591.792C450.666 610.714 431.656 684.328 477.492 746.489C484.766 756.354 498.06 770.482 507.031 777.886C526.979 794.345 580.16 826.691 614.289 843.123L639.554 855.288L702.201 854.647L764.845 854.008L767.162 845.12C772.382 825.087 753.695 771.783 725.167 725.331C665.184 627.657 613.291 587.881 546.609 588.472C536.702 588.56 523.577 590.054 517.443 591.792ZM423.512 597.43C396.668 605.949 383.033 613.865 361.606 633.376C316.746 674.219 260.262 773.797 247.505 834.528C245.548 843.845 244.52 852.307 245.219 853.334C246.591 855.348 464.233 855.998 464.233 853.989C464.233 853.322 457.237 845.22 448.685 835.984C401.639 785.159 387.534 720.722 410.211 660.239C418.345 638.552 424.952 627.304 440.533 608.632C447.789 599.939 453.724 592.347 453.724 591.761C453.724 589.223 443.082 591.217 423.512 597.43ZM843.653 710.225C822.116 728.7 814.755 744.377 806.897 788.509C803.301 808.709 798.619 831.33 796.491 838.774C794.363 846.221 792.624 852.962 792.624 853.756C792.624 854.549 827.998 855.2 871.233 855.2H949.845L953.005 846.512C960.626 825.566 949.014 792.305 922.16 758.172C908.646 740.996 864.539 697.927 860.462 697.927C859.101 697.927 851.537 703.46 843.653 710.225Z" fill="black"/>
</svg>
