<svg width="711" height="512" viewBox="0 0 711 512" fill="none" xmlns="http://www.w3.org/2000/svg">
<path fill-rule="evenodd" clip-rule="evenodd" d="M534.585 1.5643C514.963 6.8949 501.497 21.1185 499.91 38.1898L499.022 47.7215L512.158 48.3267C533.514 49.3085 558.308 53.4548 576.031 59.0046C594.802 64.8833 595.981 64.3305 598.974 48.26C601.48 34.8013 590.254 15.0826 575.671 7.33097C562.559 0.363305 547.033 -1.81706 534.585 1.5643ZM354.53 43.9922C325.773 50.3427 307.486 71.6365 307.331 98.9543C307.257 111.682 308.542 116.447 314.527 125.686C328.038 146.532 359.858 161.435 391.754 161.854C413.286 162.137 422.039 158.089 430.238 144.061C434.087 137.472 434.773 132.196 433.775 116.826C430.488 66.2559 396.241 34.7822 354.53 43.9922ZM542.929 127.671C525.687 135.487 504.221 154.627 496.807 168.795C491.099 179.709 491.364 197.822 497.409 209.894C518.5 252.012 587.735 249.879 603.989 206.61C614.892 177.591 600.587 132.444 577.747 123.787C565.126 119.004 561.051 119.459 542.929 127.671ZM642.786 126.494C634.23 131.929 635.722 137.307 648.193 145.984C654.288 150.223 663.993 157.462 669.757 162.068C682.02 171.867 684.277 172.341 684.119 165.08C683.925 156.011 677.669 143.053 668.48 132.682C659.009 121.992 652.383 120.396 642.786 126.494ZM666.502 191.862C655.113 198.16 655.087 206.455 666.431 215.851C671.086 219.709 676.524 222.866 678.515 222.866C684.072 222.866 699.997 207.272 699.997 201.832C699.997 195.992 688.288 187.12 680.596 187.132C677.541 187.137 671.199 189.265 666.502 191.862ZM272.443 247.792C205.666 266.714 186.656 340.328 232.492 402.489C239.766 412.354 253.06 426.482 262.031 433.886C281.979 450.345 335.16 482.691 369.289 499.123L394.554 511.288L457.201 510.647L519.845 510.008L522.162 501.12C527.382 481.087 508.695 427.783 480.167 381.331C420.184 283.657 368.291 243.881 301.609 244.472C291.702 244.56 278.577 246.054 272.443 247.792ZM178.512 253.43C151.668 261.949 138.033 269.865 116.606 289.376C71.7456 330.219 15.2622 429.797 2.5049 490.528C0.547692 499.845 -0.479503 508.307 0.219314 509.334C1.59068 511.348 219.233 511.998 219.233 509.989C219.233 509.322 212.237 501.22 203.685 491.984C156.639 441.159 142.534 376.722 165.211 316.239C173.345 294.552 179.952 283.304 195.533 264.632C202.789 255.939 208.724 248.347 208.724 247.761C208.724 245.223 198.082 247.217 178.512 253.43ZM598.653 366.225C577.116 384.7 569.755 400.377 561.897 444.509C558.301 464.709 553.619 487.33 551.491 494.774C549.363 502.221 547.624 508.962 547.624 509.756C547.624 510.549 582.998 511.2 626.233 511.2H704.845L708.005 502.512C715.626 481.566 704.014 448.305 677.16 414.172C663.646 396.996 619.539 353.927 615.462 353.927C614.101 353.927 606.537 359.46 598.653 366.225Z" fill="black"/>
</svg>
