<svg width="106" height="82" viewBox="0 0 106 82" fill="none" xmlns="http://www.w3.org/2000/svg">
<path fill-rule="evenodd" clip-rule="evenodd" d="M46.0961 3.48087C44.5901 15.5513 41.2862 33.8206 39.3382 40.8499L37.1 48.9252L28.9722 50.8252C11.28 54.9608 0 63.7129 0 73.3036C0 76.5615 1.72291 79.2192 4.90128 80.8653C8.23049 82.5889 11.1667 82.375 16.1658 80.0447C22.9457 76.884 28.5784 70.3764 33.8825 59.5765L38.4152 50.3475L42.8542 49.8862C45.2954 49.6323 49.3104 49.215 51.7769 48.9578C54.2435 48.7006 56.2615 48.6794 56.2615 48.9105C56.2615 49.1415 57.5645 53.6683 59.1578 58.9715C62.1266 68.8553 67.3948 81.2686 68.6211 81.2686C69.6493 81.2686 69.5132 80.8138 66.961 75.7335C64.8655 71.562 59.7669 56.7693 58.3856 50.8538L57.8613 48.6084L64.6037 48.6141C68.3121 48.6173 73.8225 48.8541 76.85 49.1407C82.2658 49.6527 82.3538 49.6992 82.3538 52.0393C82.3538 55.0228 83.9683 61.5663 84.8367 62.1036C85.1955 62.3257 85.1808 61.3091 84.8049 59.8443C84.4282 58.3795 83.8362 54.2423 83.4889 50.6496C83.1415 47.057 82.7183 44.9439 82.5487 45.9547C82.2454 47.7641 82.0546 47.7919 70.1141 47.7919C63.4451 47.7919 57.7765 47.4481 57.5172 47.0284C57.2587 46.6087 55.416 37.8827 53.4224 27.6364C48.4869 2.26673 48.1004 0.526753 47.289 0.0246014C46.9001 -0.216268 46.3628 1.33918 46.0961 3.48087ZM47.3787 6.35988C45.1919 22.0482 41.7811 38.9989 39.5209 45.415L38.3704 48.6802L46.7044 48.1258C51.2885 47.8212 55.1852 47.444 55.3654 47.2873C55.5448 47.1297 53.8407 37.7178 51.578 26.3716C49.3153 15.0255 47.426 6.01939 47.3787 6.35988ZM86.9918 45.989C85.3961 47.7551 85.171 51.9193 86.5938 53.3441C88.254 55.0065 91.1388 54.4358 94.0587 51.8687C96.3776 49.8299 96.9354 49.6323 97.3463 50.7027C97.6178 51.4122 97.445 52.7325 96.9615 53.6364C96.4787 54.5403 96.2627 55.4605 96.4828 55.6801C96.7022 55.8998 97.1319 55.2906 97.4376 54.3255C97.9285 52.7783 98.1536 52.708 99.3473 53.7319C101.903 55.9234 103.145 56.219 101.312 54.199C99.1597 51.8278 99.0301 50.8129 100.7 49.4249C101.373 48.8656 101.911 47.9944 101.896 47.4881C101.881 46.9811 101.094 47.4857 100.147 48.6084C99.1989 49.7327 98.2816 50.243 98.1063 49.7449C97.931 49.2469 97.2232 48.1446 96.5334 47.2954C95.3242 45.8069 95.2932 45.8167 95.6691 47.5812C95.9496 48.899 95.3788 49.985 93.6282 51.4596C89.1028 55.2727 85.2297 53.1514 89.292 49.0836C90.4751 47.8988 91.2945 46.4797 91.1119 45.9319C90.5754 44.3176 88.4758 44.347 86.9918 45.989ZM87.2298 47.4032C86.6623 48.0874 86.3819 48.8313 86.6053 49.0558C87.344 49.7947 89.6923 48.4565 89.6923 47.2962C89.6923 45.798 88.5173 45.8494 87.2298 47.4032ZM26.7642 52.659C15.6513 55.6279 5.76803 61.7443 2.80084 67.4901C2.15751 68.7369 1.63077 71.2117 1.63077 72.9901C1.63077 75.5996 2.11592 76.6333 4.1397 78.3382C11.1341 84.2325 23.7571 76.3181 31.5741 61.1385C36.1672 52.2189 36.4648 51.0391 34.0969 51.1314C33.0581 51.1722 29.7583 51.8597 26.7642 52.659ZM104.265 54.1198C103.251 55.4148 103.28 55.4433 104.573 54.4284C105.357 53.812 106 53.1686 106 52.9995C106 52.3276 105.331 52.7595 104.265 54.1198Z" fill="black"/>
</svg>
